<svg width="201" height="202" viewBox="0 0 201 202" fill="none" xmlns="http://www.w3.org/2000/svg">
<g id="big cart">
<path id="Vector" d="M155.928 153.91C144.079 153.91 134.473 163.385 134.473 175.074C134.473 186.762 144.079 196.238 155.928 196.238C167.778 196.238 177.384 186.762 177.384 175.074C177.384 163.385 167.778 153.91 155.928 153.91ZM155.928 153.91H68.0512C62.9927 153.91 58.6216 150.424 57.5617 145.545L29.0128 14.1265C27.9529 9.24743 23.5817 5.76172 18.5232 5.76172H5.74023M37.9234 37.5077H184.579C191.718 37.5077 196.865 44.2569 194.887 51.0227L176.32 114.515C174.995 119.045 170.792 122.164 166.012 122.164H56.4905M128.015 67.6665L115.693 80.0474M115.693 80.0474L103.371 92.4284M115.693 80.0474L128.015 92.4284M115.693 80.0474L103.371 67.6665M80.8342 175.074C80.8342 186.762 71.2283 196.238 59.3788 196.238C47.5293 196.238 37.9234 186.762 37.9234 175.074C37.9234 163.385 47.5293 153.91 59.3788 153.91C71.2283 153.91 80.8342 163.385 80.8342 175.074Z" stroke="#9E9E9E" stroke-width="10" stroke-linecap="round" stroke-linejoin="round"/>
</g>
</svg>
