<svg width="32" height="32" viewBox="0 0 32 32" fill="none" xmlns="http://www.w3.org/2000/svg">
<g id="cart">
<path id="Vector" d="M23.0138 22.6667C21.5136 22.6667 20.2975 23.8606 20.2975 25.3333C20.2975 26.8061 21.5136 28 23.0138 28C24.5139 28 25.73 26.8061 25.73 25.3333C25.73 23.8606 24.5139 22.6667 23.0138 22.6667ZM23.0138 22.6667H11.8886C11.2482 22.6667 10.6948 22.2275 10.5606 21.6127L6.9463 5.05396C6.81212 4.4392 6.25873 4 5.61832 4H4M8.07438 8H26.641C27.5448 8 28.1964 8.85039 27.946 9.70288L25.5953 17.7029C25.4276 18.2737 24.8955 18.6667 24.2904 18.6667H10.425M13.5069 25.3333C13.5069 26.8061 12.2908 28 10.7906 28C9.29049 28 8.07438 26.8061 8.07438 25.3333C8.07438 23.8606 9.29049 22.6667 10.7906 22.6667C12.2908 22.6667 13.5069 23.8606 13.5069 25.3333Z" stroke="black" stroke-width="2" stroke-linecap="round" stroke-linejoin="round"/>
</g>
</svg>
