<svg width="116" height="115" viewBox="0 0 116 115" fill="none" xmlns="http://www.w3.org/2000/svg">
<g id="check mark">
<path id="Subtract" fill-rule="evenodd" clip-rule="evenodd" d="M58 115C89.7564 115 115.5 89.2564 115.5 57.5C115.5 25.7436 89.7564 0 58 0C26.2436 0 0.5 25.7436 0.5 57.5C0.5 89.2564 26.2436 115 58 115ZM87.6213 42.1213C88.7929 40.9497 88.7929 39.0503 87.6213 37.8787C86.4498 36.7071 84.5502 36.7071 83.3787 37.8787L50 71.2574L33.6213 54.8787C32.4497 53.7071 30.5503 53.7071 29.3787 54.8787C28.2071 56.0503 28.2071 57.9497 29.3787 59.1213L47.8787 77.6213L50 79.7426L52.1213 77.6213L87.6213 42.1213Z" fill="#007BE9"/>
</g>
</svg>
