<svg width="25" height="24" viewBox="0 0 25 24" fill="none" xmlns="http://www.w3.org/2000/svg">
<g id="facebook" clip-path="url(#clip0_734_1684)">
<path id="Vector" d="M24.5 7C24.5 3.13401 21.366 0 17.5 0H7.49998C3.63402 0 0.500033 3.13217 0.500019 6.99813C0.500007 10.3223 0.500002 13.9539 0.5 17.0041C0.499999 20.8701 3.63401 24 7.5 24C9.16667 24 10.8333 24 12.5 24V15.75H9.50003V12H12.5V9C12.5 7.80653 12.9741 6.66193 13.818 5.81802C14.662 4.97411 15.8065 4.5 17 4.5H20V8.25H18.5C17.672 8.25 17 8.172 17 9V12H20.75L19.25 15.75H17V24H17.5C21.366 24 24.5 20.866 24.5 17C24.5 13.6667 24.5 10.3333 24.5 7Z" fill="white"/>
</g>
<defs>
<clipPath id="clip0_734_1684">
<rect width="24" height="24" fill="white" transform="translate(0.5)"/>
</clipPath>
</defs>
</svg>
