<svg width="345" height="275" viewBox="0 0 345 275" fill="none" xmlns="http://www.w3.org/2000/svg">
<path fill-rule="evenodd" clip-rule="evenodd" d="M96.9658 184.923H54.3271L52.3835 185.365L51.3038 186.469L50.8718 188.014V189.339L79.9412 252.309C75.7269 253.869 71.1893 254.717 66.4629 254.717C44.1683 254.717 26.0957 235.836 26.0957 212.546C26.0957 189.256 44.1683 170.374 66.4629 170.374C78.6429 170.374 89.5641 176.011 96.9658 184.923Z" fill="#B9502D"/>
<path fill-rule="evenodd" clip-rule="evenodd" d="M264.444 56.1016C240.608 56.1016 219.625 68.8843 207.441 88.246C205.813 90.8316 204.342 93.5349 203.043 96.3411C203.168 96.5091 203.263 96.6983 203.315 96.8971C203.554 97.8125 203.01 98.6388 202.202 98.9439L201.842 99.0808C201.813 99.1502 201.784 99.2197 201.756 99.2893C202.859 100.013 203.79 101.021 204.44 102.402C205.021 103.635 205.336 104.952 205.651 106.273C205.684 106.408 205.716 106.544 205.749 106.68C206.15 106.616 206.557 106.584 206.98 106.597C210.493 106.711 213.599 109.489 213.637 113.3C213.64 113.71 213.606 114.117 213.543 114.514C213.612 114.727 213.674 114.933 213.727 115.124C214.262 117.091 214.345 119.485 212.977 121.109C211.902 122.386 210.279 123.311 208.755 124.058C208.675 124.319 208.529 124.57 208.358 124.748C208.215 124.91 208.044 125.024 207.845 125.091C207.792 125.123 207.736 125.145 207.677 125.167C207.761 125.551 207.806 125.944 207.809 126.335C207.773 126.338 207.736 126.343 207.699 126.35C207.425 126.394 207.167 126.47 206.915 126.563C206.791 126.534 206.666 126.528 206.539 126.531C206.539 126.528 206.539 126.524 206.539 126.521C206.54 126.512 206.54 126.501 206.536 126.489C206.514 126.413 206.427 126.365 206.359 126.35C206.25 126.324 206.128 126.331 206.02 126.365C205.914 126.397 205.796 126.442 205.721 126.524C205.684 126.566 205.647 126.609 205.611 126.652C205.574 126.694 205.538 126.737 205.5 126.779C205.351 126.798 205.208 126.861 205.093 126.957C204.975 127.055 204.869 127.173 204.782 127.3C204.708 127.408 204.642 127.56 204.673 127.694C204.257 128.187 203.893 128.746 203.595 129.207C202.964 130.183 202.594 131.285 202.323 132.417C202.32 132.422 202.316 132.425 202.312 132.428C202.308 132.431 202.304 132.434 202.301 132.439C201.67 133.448 201.517 134.615 201.364 135.778C201.354 135.852 201.344 135.927 201.334 136.002C201.327 136.056 201.32 136.111 201.314 136.165C201.308 136.22 201.302 136.275 201.294 136.329C201.288 136.352 201.282 136.374 201.275 136.396C201.247 136.497 201.22 136.596 201.194 136.698C201.07 137.184 201.033 137.728 201.095 138.262C200.983 138.652 200.902 139.05 200.912 139.447C200.545 140.648 200.448 141.878 200.815 143.083C200.741 143.337 200.719 143.62 200.778 143.912C201.055 145.314 201.446 146.801 202.049 148.095C202.115 148.235 202.189 148.384 202.276 148.54C202.273 148.82 202.351 149.118 202.541 149.423C202.73 149.724 202.915 150.026 203.099 150.328C204.153 152.054 205.188 153.748 206.89 154.868C206.825 154.941 206.803 155.027 206.918 155.096C207.227 155.285 207.503 155.52 207.779 155.756C207.937 155.891 208.094 156.026 208.258 156.152C208.706 156.495 209.206 156.775 209.769 156.844C209.834 156.854 209.906 156.851 209.977 156.841C210.86 157.398 211.784 157.9 212.676 158.326C213.221 158.585 213.786 158.774 214.351 158.963C214.528 159.022 214.704 159.081 214.88 159.142C215.023 159.355 215.266 159.482 215.493 159.578C215.785 159.702 216.065 159.845 216.332 160.016C216.382 160.048 216.45 160.061 216.516 160.064C217.64 160.96 218.922 161.642 220.196 162.321C220.853 162.67 221.507 163.019 222.137 163.395C223.303 164.091 224.472 164.79 225.637 165.489C225.991 166.068 226.583 166.46 227.148 166.834C227.293 166.931 227.437 167.026 227.574 167.123C228.417 167.717 229.25 168.324 230.049 168.979C230.944 169.71 231.775 170.508 232.533 171.372C232.757 171.649 232.975 171.931 233.189 172.214C233.13 172.284 233.115 172.367 233.18 172.443C233.78 173.19 234.274 174.016 234.65 174.903C234.685 174.989 234.762 175.03 234.849 175.046C235.119 175.586 235.403 176.119 235.687 176.651C236.099 177.425 236.511 178.199 236.88 178.993C236.892 179.121 236.92 179.254 236.964 179.391C237.93 182.346 239.047 185.242 240.296 188.077C240.3 188.083 240.303 188.089 240.306 188.096C240.308 188.1 240.31 188.104 240.312 188.109C240.592 189.844 241.102 191.617 241.779 193.248C241.758 193.998 242.152 194.764 242.967 194.935C243.049 194.975 243.137 195.007 243.231 195.03C249.908 197.312 257.038 198.546 264.444 198.546C302.098 198.546 332.622 166.659 332.622 127.322C332.622 87.9885 302.098 56.1016 264.444 56.1016Z" fill="#007BE9"/>
<path fill-rule="evenodd" clip-rule="evenodd" d="M157.76 177.486C157.67 177.365 157.608 177.28 157.568 177.217C157.407 177.386 156.754 179.689 156.754 179.949C156.709 180.297 156.592 181.86 156.503 183.048C156.455 183.677 156.416 184.201 156.399 184.384C156.299 185.514 156.211 186.646 156.123 187.777C155.83 188.769 155.666 190.956 155.647 191.993C155.47 192.577 155.395 193.229 155.377 193.852C155.394 194.66 154.985 198.079 154.744 200.097C154.644 200.935 154.573 201.531 154.573 201.599C154.574 201.6 154.567 201.642 154.554 201.721C154.302 203.306 151.669 219.841 158.768 221.524C158.91 221.529 159.116 221.537 159.369 221.545C159.874 221.562 160.569 221.582 161.329 221.593C162.706 221.614 164.306 221.609 165.365 221.508C165.264 223.849 164.302 239.848 154.472 247.811C153.94 249.912 152.61 252.541 152.61 252.541H153.838C153.838 252.541 158.217 243.2 168.312 241.564C168.325 241.563 168.405 241.55 168.494 241.537C168.605 241.52 168.729 241.502 168.745 241.5C168.697 240.854 168.636 239.986 168.567 238.969C167.492 211.428 164.725 196.121 162.227 187.615C160.938 183.224 159.719 180.643 158.84 179.125C158.4 178.366 158.046 177.874 157.813 177.558L157.76 177.486ZM220.314 230.767C220.33 230.741 220.339 230.713 220.33 230.684C220.312 230.619 220.23 230.601 220.174 230.588L220.162 230.586C220.147 230.582 220.132 230.579 220.117 230.576C220.102 230.573 220.087 230.57 220.072 230.567L220.071 230.566L220.069 230.566L220.068 230.565L220.066 230.565L220.065 230.564L220.064 230.564L220.062 230.564C220.062 230.564 220.061 230.563 220.059 230.563L220.018 230.53C219.926 230.455 219.832 230.38 219.745 230.296C219.677 230.233 219.609 230.166 219.543 230.096C219.52 230.072 219.498 230.047 219.477 230.022L219.465 230.008C219.459 230.001 219.453 229.995 219.447 229.988C219.428 229.969 219.41 229.95 219.394 229.928C219.416 229.899 219.431 229.871 219.419 229.842C219.273 229.524 219.061 229.238 218.806 229.006C218.866 228.933 218.862 228.863 218.735 228.854L218.21 223.787C217.681 220.193 214.438 194.799 223.094 178.749C223.094 178.749 209.302 195.079 216.238 228.323C216.493 229.55 217.494 230.799 218.89 230.783C218.893 230.785 218.896 230.787 218.899 230.788C218.904 230.792 218.909 230.796 218.914 230.799C218.944 230.82 218.974 230.841 219.005 230.856C219.187 230.943 219.387 230.984 219.582 231.024L219.596 231.027C219.696 231.05 219.832 231.021 219.929 230.996C220.01 230.973 220.103 230.935 220.178 230.884L220.233 230.909L220.233 230.909C220.295 230.935 220.355 230.962 220.417 230.986C220.439 230.996 220.47 230.992 220.488 230.989C220.516 230.986 220.548 230.977 220.576 230.961C220.6 230.945 220.647 230.907 220.6 230.888C220.507 230.85 220.411 230.808 220.315 230.767L220.315 230.767L220.314 230.767ZM237.52 253.891C237.844 253.993 238.164 254.089 238.468 254.174C220.088 249.092 183.554 255.071 183.554 255.071L183.219 254.197C182.836 253.202 181.916 252.55 180.89 252.55H178.229C192.483 247.408 225.936 251.352 236.432 253.599C236.802 253.679 237.163 253.777 237.52 253.891Z" fill="black"/>
<path fill-rule="evenodd" clip-rule="evenodd" d="M195.736 70.2025C194.072 68.6419 192.104 68.0891 190.207 68.1405C187.898 68.2059 185.716 69.2513 184.029 70.9186C180.933 73.9878 178.184 75.6952 175.479 76.7931C173.149 77.7388 170.853 78.2307 168.414 78.7533C168.027 78.8361 167.637 78.9197 167.242 79.006C163.615 79.8015 160.488 82.2879 158.956 85.8197C158.91 85.9296 158.864 86.0427 158.817 86.1568C156.577 91.7518 158.929 97.7461 163.779 101.121C165.593 102.383 167.435 102.135 168.68 101.967C168.997 101.925 169.275 101.887 169.504 101.881C169.6 101.878 169.681 101.954 169.683 102.051C169.686 102.147 169.61 102.227 169.513 102.23C169.322 102.235 169.076 102.269 168.785 102.309C167.551 102.48 165.522 102.759 163.58 101.407C158.618 97.9554 156.182 91.7965 158.493 86.0264L158.494 86.0254C158.54 85.9111 158.587 85.7959 158.634 85.6837L158.635 85.6818C160.212 82.0441 163.433 79.4839 167.168 78.6649C167.565 78.578 167.957 78.4941 168.344 78.4111C170.784 77.888 173.048 77.4029 175.348 76.4696C178.007 75.3904 180.718 73.7099 183.784 70.6706C185.524 68.95 187.787 67.8596 190.197 67.7915C192.171 67.738 194.234 68.3151 195.975 69.9478C197.715 71.5784 199.117 74.2466 199.807 78.3456C199.823 78.4407 199.759 78.5308 199.664 78.5468C199.569 78.5628 199.479 78.4987 199.463 78.4036C198.781 74.3537 197.403 71.7652 195.736 70.2025Z" fill="black"/>
<path fill-rule="evenodd" clip-rule="evenodd" d="M184.867 89.3876C182.547 88.9974 180.824 89.7095 179.486 90.5973C178.615 91.1748 177.998 92.1001 177.795 93.1575C176.813 98.2428 174.06 100.581 171.5 101.635C170.82 101.913 170.156 102.101 169.547 102.226C168.661 102.41 167.882 102.462 167.324 102.468C167.045 102.47 166.821 102.462 166.667 102.452C166.589 102.448 166.529 102.443 166.488 102.439C166.467 102.437 166.451 102.435 166.44 102.434L166.428 102.433L166.424 102.432L166.423 102.432C166.423 102.432 166.423 102.432 166.442 102.269L166.423 102.432C166.327 102.421 166.259 102.334 166.27 102.238C166.282 102.142 166.369 102.074 166.464 102.085L166.467 102.086L166.477 102.087C166.486 102.088 166.501 102.089 166.52 102.091C166.557 102.095 166.614 102.099 166.688 102.104C166.835 102.113 167.051 102.121 167.321 102.118C167.861 102.113 168.616 102.063 169.477 101.884C170.068 101.762 170.71 101.581 171.367 101.312C173.824 100.301 176.494 98.0556 177.452 93.0915C177.672 91.9433 178.342 90.9364 179.293 90.3062C180.681 89.3857 182.493 88.6341 184.925 89.0433C187.348 89.4509 190.362 91.007 194.17 94.6392C194.748 95.1518 195.516 95.6132 196.417 96.1544C196.578 96.2515 196.744 96.3511 196.914 96.4541C198.024 97.1276 199.284 97.9329 200.559 99.0703C203.113 101.349 205.713 104.946 207.344 111.462C207.523 112.17 208.291 112.476 208.851 112.094L208.852 112.094C209.459 111.683 210.215 111.297 210.919 111.303C211.279 111.307 211.626 111.413 211.927 111.669C212.226 111.923 212.466 112.314 212.633 112.865C212.948 113.903 212.843 115.029 212.425 116.018C211.958 117.122 211.549 118.156 211.171 119.11C210.631 120.476 210.156 121.676 209.671 122.678C208.846 124.384 207.963 125.582 206.611 126.093C206.521 126.128 206.42 126.082 206.386 125.992C206.352 125.902 206.398 125.801 206.488 125.767C207.707 125.306 208.539 124.215 209.357 122.526C209.838 121.532 210.304 120.354 210.838 119.002C211.216 118.048 211.627 117.007 212.103 115.883C212.103 115.883 212.103 115.883 212.103 115.883C212.493 114.959 212.587 113.917 212.299 112.966C212.299 112.966 212.299 112.966 212.299 112.966C212.144 112.458 211.934 112.133 211.701 111.935C211.47 111.739 211.205 111.655 210.916 111.653C210.324 111.647 209.644 111.98 209.048 112.383C209.048 112.383 209.048 112.383 209.048 112.383L208.95 112.238L209.047 112.383C209.048 112.383 209.048 112.383 209.048 112.383C208.266 112.916 207.237 112.466 207.005 111.547C205.39 105.093 202.824 101.559 200.326 99.3309C199.075 98.215 197.838 97.4228 196.733 96.7527C196.567 96.6519 196.403 96.5537 196.243 96.4573C195.343 95.9168 194.541 95.4352 193.936 94.8984L193.931 94.8942C190.147 91.2848 187.194 89.7792 184.867 89.3876Z" fill="black"/>
<path fill-rule="evenodd" clip-rule="evenodd" d="M205.901 126.331C205.957 126.174 206.101 126.081 206.269 126.057C206.518 126.022 206.763 125.968 207.006 125.908C207.087 125.584 207.329 125.314 207.743 125.314C207.749 125.314 207.754 125.314 207.761 125.315C207.768 125.316 207.775 125.317 207.783 125.317C207.855 125.082 208.016 124.888 208.265 124.808C208.355 124.675 208.455 124.545 208.567 124.424C208.644 124.119 208.818 123.845 209.095 123.686C209.111 123.632 209.129 123.575 209.151 123.521C209.117 123.483 209.098 123.438 209.12 123.375L209.131 123.343C209.264 122.975 209.398 122.605 209.565 122.25C209.674 122.016 209.799 121.79 209.925 121.565L209.925 121.563C209.956 121.507 209.988 121.451 210.018 121.395C210.053 121.172 210.093 120.95 210.171 120.731C210.273 120.438 210.454 120.197 210.678 120.035C210.808 119.726 210.932 119.418 211.048 119.107C211.066 119.059 211.091 119.021 211.119 118.986C211.135 118.906 211.156 118.824 211.191 118.747C211.3 118.492 211.416 118.233 211.534 117.97C211.979 116.983 212.444 115.951 212.596 114.899C212.785 113.583 212.453 112.655 211.744 111.698H211.725C211.719 111.697 211.712 111.696 211.705 111.696L211.687 111.693C211.673 111.692 211.66 111.69 211.648 111.689C211.631 111.684 211.616 111.677 211.6 111.67L211.585 111.663C211.582 111.663 211.579 111.66 211.576 111.66C211.573 111.657 211.567 111.654 211.56 111.651C211.556 111.646 211.55 111.642 211.545 111.638C211.54 111.634 211.534 111.63 211.529 111.625C211.508 111.606 211.492 111.584 211.477 111.562C211.475 111.558 211.473 111.556 211.472 111.554C211.47 111.551 211.469 111.549 211.467 111.546C210.718 111.581 209.978 111.698 209.272 111.975C209.251 111.997 209.229 112.016 209.207 112.029C208.84 112.261 208.414 112.461 207.976 112.331C207.814 112.28 207.625 112.2 207.506 112.07C207.457 112.013 207.419 111.937 207.388 111.867C207.366 111.819 207.345 111.771 207.332 111.724C207.251 111.612 207.183 111.479 207.136 111.32C206.801 110.157 206.462 108.99 206.123 107.827C206.079 107.824 205.983 107.811 205.971 107.757C205.93 107.581 205.868 107.412 205.807 107.243C205.73 107.033 205.654 106.824 205.619 106.604C205.601 106.588 205.588 106.572 205.582 106.55C205.52 106.308 205.43 106.079 205.308 105.863C205.284 105.818 205.258 105.774 205.233 105.73C205.139 105.564 205.046 105.399 204.973 105.221C204.78 104.763 204.537 104.347 204.27 103.927C204.267 103.924 204.267 103.921 204.267 103.918C204.236 103.905 204.208 103.886 204.192 103.858C203.909 103.362 203.611 102.875 203.294 102.402C203.132 102.157 202.967 101.919 202.796 101.684C202.76 101.634 202.722 101.584 202.684 101.534C202.581 101.397 202.476 101.258 202.392 101.112C202.268 101.124 202.162 101.112 202.115 101.045C201.702 100.454 201.22 99.9102 200.732 99.3795C200.679 99.3731 200.629 99.3572 200.58 99.3254C200.449 99.2396 200.343 99.1252 200.238 99.0108C200.126 98.89 200.014 98.7724 199.886 98.6739C199.852 98.6485 199.849 98.6135 199.858 98.5785C199.85 98.5738 199.842 98.569 199.833 98.5642C199.825 98.5595 199.816 98.5547 199.808 98.5499C199.794 98.5403 199.779 98.5326 199.764 98.5252C199.759 98.5228 199.754 98.5205 199.749 98.5182C199.429 98.3211 199.143 98.0891 198.882 97.8317C197.147 96.9068 195.335 95.893 193.967 94.5422C193.752 94.3992 193.538 94.253 193.348 94.0814C193.287 94.0247 193.23 93.9628 193.174 93.9008C193.113 93.8341 193.052 93.7673 192.984 93.7064C192.872 93.6035 192.747 93.5142 192.623 93.426L192.593 93.4044C192.399 93.2657 192.226 93.1124 192.051 92.9573C191.982 92.8955 191.912 92.8335 191.84 92.772C191.716 92.6671 191.629 92.6321 191.479 92.594C191.287 92.5431 191.153 92.4414 191.069 92.2571C191.044 92.2031 191.05 92.1522 191.072 92.1045C190.093 91.4784 189.11 90.8555 188.122 90.2453C188.004 90.2071 187.885 90.1658 187.767 90.1245C187.59 90.061 187.428 89.9847 187.276 89.8734C187.271 89.8696 187.268 89.8658 187.266 89.862C187.266 89.8614 187.265 89.8608 187.265 89.8602C187.264 89.8583 187.262 89.8563 187.261 89.8544C187.167 89.8274 187.075 89.7996 186.982 89.7717C186.89 89.7439 186.797 89.7161 186.704 89.6891C186.434 89.6128 186.163 89.5397 185.893 89.473C185.867 89.4668 185.841 89.4607 185.816 89.4546C185.554 89.3921 185.304 89.3323 185.069 89.1933C185.044 89.1774 185.022 89.1615 185.007 89.1424C184.994 89.1424 184.982 89.1417 184.969 89.1409C184.957 89.1401 184.944 89.1393 184.932 89.1393C184.915 89.1409 184.897 89.1425 184.879 89.144L184.826 89.1488C184.761 89.1552 184.661 89.1647 184.599 89.1234C184.593 89.117 184.59 89.1138 184.587 89.1075C184.579 89.1059 184.571 89.1051 184.562 89.1043C184.553 89.1035 184.545 89.1027 184.537 89.1011C184.204 89.0852 183.872 89.0948 183.536 89.117C183.098 89.1456 182.6 89.206 182.208 89.2791C182.106 89.2982 181.938 89.3173 181.817 89.2664L181.809 89.2674C181.79 89.2703 181.768 89.2735 181.748 89.2791C181.465 89.3618 181.198 89.4634 180.946 89.6287C180.847 89.6955 180.71 89.7463 180.576 89.7558C180.24 90.0133 179.877 90.2358 179.494 90.401C179.389 90.5186 179.28 90.6267 179.162 90.7284C178.832 91.0049 178.509 91.2909 178.189 91.577C178.123 91.6946 178.058 91.8121 177.996 91.9297C177.991 91.9377 177.986 91.9464 177.982 91.9552C177.977 91.9639 177.972 91.9726 177.968 91.9806C177.909 92.1204 177.843 92.2603 177.775 92.3969C177.777 92.4256 177.779 92.4542 177.781 92.4828C177.784 92.5114 177.786 92.54 177.787 92.5686C177.831 93.6396 177.477 94.6439 176.883 95.4703C176.752 96.7829 176.037 97.9556 175.042 98.7565C175.03 98.8106 174.983 98.8614 174.949 98.8964C174.809 99.0394 174.669 99.1824 174.526 99.3222C174.455 99.3922 174.371 99.4494 174.287 99.5002C173.811 100.056 173.223 100.505 172.574 100.813C172.527 100.905 172.428 100.969 172.34 101.013C172.132 101.118 171.918 101.204 171.7 101.28C171.675 101.298 171.651 101.316 171.626 101.335C171.577 101.371 171.528 101.408 171.476 101.442C171.116 101.687 170.708 101.846 170.27 101.824C170.245 101.82 170.22 101.817 170.195 101.811C169.76 101.963 169.303 102.049 168.84 102.059C168.445 102.176 168.031 102.233 167.621 102.214C167.556 102.211 167.484 102.205 167.425 102.173C167.232 102.202 167.033 102.218 166.838 102.218C166.34 102.218 165.871 102.129 165.429 101.982C165.425 101.982 165.421 101.984 165.417 101.986C165.413 101.987 165.409 101.989 165.404 101.989L165.396 101.989C165.356 101.992 165.318 101.995 165.277 101.995L165.246 101.995C165.183 101.996 165.114 101.996 165.05 101.982C165.038 101.979 165.026 101.977 165.014 101.974C164.96 101.961 164.905 101.949 164.854 101.925L164.843 101.92C164.805 101.902 164.761 101.881 164.727 101.855C164.695 101.834 164.669 101.806 164.643 101.779L164.627 101.763C164.608 101.738 164.596 101.712 164.59 101.684C164.552 101.677 164.518 101.665 164.484 101.652C164.434 101.632 164.392 101.605 164.349 101.577L164.332 101.566C164.304 101.557 164.282 101.537 164.266 101.515C163.635 101.251 163.066 100.851 162.591 100.333C162.586 100.332 162.58 100.331 162.575 100.331C162.566 100.331 162.558 100.33 162.55 100.327C162.268 100.209 162.071 99.9949 161.87 99.7751C161.847 99.7502 161.824 99.7253 161.801 99.7005C161.549 99.4271 161.3 99.1538 161.058 98.8741C160.579 98.3179 160.135 97.7363 159.718 97.1325C159.678 97.0753 159.693 97.0244 159.734 96.9799C159.606 96.9894 159.475 96.9672 159.42 96.856C159.292 96.5975 159.195 96.3251 159.098 96.0527C158.978 95.7153 158.858 95.3778 158.68 95.0666C158.655 95.0253 158.686 94.9745 158.72 94.9331C158.213 94.1354 157.905 93.1851 157.862 92.1713C157.853 91.9202 157.868 91.6723 157.899 91.4276C157.874 91.4117 157.856 91.3926 157.846 91.364C157.812 91.2242 157.766 91.0875 157.71 90.954C157.7 90.9064 157.71 90.8619 157.741 90.8237C157.759 90.8047 157.781 90.7824 157.8 90.7602C157.822 90.7398 157.849 90.7255 157.876 90.7108C157.883 90.7072 157.889 90.7035 157.896 90.6998C157.859 90.4551 157.834 90.2072 157.834 89.9529C157.864 89.7167 157.894 89.4813 157.925 89.2464C157.952 89.0389 157.979 88.8316 158.005 88.6244C158.005 88.6207 158.006 88.618 158.007 88.6159C158.007 88.6143 158.008 88.613 158.008 88.6117C157.961 88.6022 157.902 88.5799 157.902 88.5386C157.902 88.4623 157.918 88.4019 157.946 88.3352C157.968 88.2812 157.986 88.2271 157.996 88.1699C158.014 88.046 158.036 87.9347 158.095 87.8235C158.126 87.7599 158.182 87.7218 158.241 87.6868C158.288 86.5109 158.763 85.4462 159.485 84.5658C159.622 84.2194 159.777 83.8825 159.979 83.5742C160.638 82.5636 161.313 81.8453 162.295 81.1938C163.057 80.2403 164.182 79.665 165.379 79.4775C165.417 79.4585 165.454 79.4457 165.491 79.433L165.499 79.4305C165.506 79.4263 165.516 79.4219 165.528 79.4163C165.541 79.4101 165.558 79.4024 165.578 79.3917C165.586 79.3885 165.593 79.3853 165.6 79.3822C165.607 79.379 165.614 79.3758 165.622 79.3726C165.647 79.3615 165.672 79.3504 165.698 79.3393C165.724 79.3282 165.749 79.317 165.774 79.3059C165.908 79.2487 166.045 79.201 166.182 79.1565C166.43 79.0739 166.685 79.0135 166.943 78.969C166.996 78.9595 167.108 78.9499 167.195 78.9722C167.214 78.9687 167.232 78.9642 167.25 78.9598C167.264 78.9562 167.278 78.9528 167.291 78.9499C167.395 78.891 167.533 78.8533 167.583 78.8397L167.587 78.8387C168.255 78.6671 168.933 78.5241 169.608 78.3842C169.943 78.3143 170.276 78.2539 170.615 78.2126C170.631 78.2094 170.643 78.2062 170.655 78.2031C170.772 78.176 170.889 78.149 171.007 78.122L171.009 78.1216C171.125 78.0947 171.242 78.0678 171.358 78.041C171.936 77.7073 172.571 77.4911 173.223 77.4276C173.251 77.4085 173.279 77.3894 173.307 77.3767C173.45 77.3036 173.603 77.2528 173.761 77.221C173.821 77.2079 173.88 77.1978 173.939 77.1876C173.965 77.1829 173.992 77.1783 174.019 77.1733C174.016 77.1733 174.116 77.1511 174.116 77.1511C174.293 77.1076 174.483 77.0164 174.667 76.9277C174.726 76.8997 174.783 76.8719 174.84 76.846C175.372 76.5981 175.907 76.3565 176.469 76.1849C176.488 76.1785 176.513 76.1722 176.538 76.169C176.563 76.1563 176.584 76.1468 176.6 76.1404C176.685 76.1053 176.771 76.0706 176.857 76.0359C177.121 75.929 177.386 75.8217 177.644 75.7018C177.927 75.5715 178.173 75.4062 178.422 75.2155C178.606 75.0736 178.805 74.9711 179.005 74.8678C179.105 74.8161 179.205 74.7642 179.305 74.707C179.579 74.548 179.822 74.3364 180.063 74.1272L180.135 74.065C180.216 73.9951 180.334 73.9443 180.458 73.9157C180.614 73.7854 180.775 73.6614 180.943 73.5502C180.999 73.4167 181.139 73.315 181.27 73.28L181.273 73.2768C181.273 73.2753 181.272 73.2752 181.271 73.2752C181.271 73.2752 181.272 73.2753 181.271 73.2752C181.271 73.2752 181.271 73.2748 181.273 73.2737C181.285 73.2578 181.301 73.2387 181.316 73.2228C181.406 73.1179 181.496 73.0194 181.599 72.9272C181.692 72.8421 181.791 72.7662 181.891 72.6905C181.984 72.6193 182.077 72.5482 182.165 72.4696C182.193 72.4473 182.221 72.4219 182.246 72.3965C182.25 72.3898 182.257 72.3832 182.264 72.3776C182.265 72.3763 182.266 72.3751 182.268 72.374C182.269 72.373 182.27 72.372 182.271 72.371C182.32 72.3235 182.37 72.2728 182.42 72.222L182.42 72.2217L182.712 71.9229C182.84 71.7896 182.97 71.6576 183.1 71.5253C183.166 71.4589 183.231 71.3923 183.297 71.3254C183.415 71.2046 183.567 71.1284 183.726 71.122C184.071 70.7661 184.422 70.4133 184.798 70.0923C185.572 69.428 186.44 68.9004 187.391 68.554C187.491 68.5191 187.662 68.4682 187.805 68.4841C188.165 68.3379 188.541 68.233 188.924 68.1854C189.026 68.0773 189.188 68.0137 189.322 68.0042L190.152 67.947C190.183 67.9449 190.214 67.9427 190.245 67.9405C190.494 67.9229 190.743 67.9053 190.991 67.9279C191.25 67.952 191.493 68.0501 191.731 68.1467L191.772 68.1631C192.428 68.2108 193.034 68.3951 193.578 68.6875H193.581L193.591 68.6875C193.653 68.6873 193.767 68.687 193.814 68.7352C193.951 68.8676 194.114 68.9527 194.278 69.0386C194.327 69.0641 194.375 69.0897 194.424 69.1166C194.654 69.2437 194.887 69.3772 195.095 69.5361C195.173 69.5931 195.245 69.6578 195.317 69.7226C195.337 69.741 195.358 69.7594 195.378 69.7776H195.381C195.422 69.7808 195.459 69.7935 195.49 69.8189C195.518 69.8285 195.54 69.8539 195.549 69.8857C195.555 69.8968 195.561 69.9087 195.566 69.9206C195.572 69.9326 195.577 69.9445 195.583 69.9556C195.602 69.9715 195.621 69.9882 195.639 70.0049C195.658 70.0216 195.677 70.0382 195.695 70.0541C195.767 70.1113 195.838 70.1717 195.91 70.2321C195.944 70.2448 195.978 70.2607 196.006 70.2861C196.609 70.8042 197.135 71.4144 197.539 72.1073C197.72 72.4198 197.88 72.7433 198.04 73.0668C198.072 73.1315 198.104 73.1963 198.136 73.2609C198.171 73.3313 198.207 73.4016 198.243 73.4719C198.4 73.7796 198.557 74.0887 198.674 74.4146C198.711 74.5195 198.667 74.618 198.596 74.6975C198.845 75.2124 199.013 75.7813 199.097 76.3724C199.103 76.3788 199.109 76.3883 199.112 76.3978C199.19 76.6267 199.255 76.8587 199.311 77.0907C199.314 77.1066 199.314 77.1225 199.311 77.1384C199.405 77.4067 199.478 77.6838 199.53 77.968C199.752 78.0092 199.916 78.2062 199.91 78.4383L199.91 78.439L199.91 78.4434L199.91 78.4633C199.909 78.4815 199.909 78.5094 199.909 78.5464C199.909 78.6205 199.91 78.7309 199.914 78.8727C199.922 79.1563 199.943 79.5647 199.993 80.0577C200.095 81.046 200.316 82.3634 200.789 83.6953C201.735 86.3555 203.654 89.0023 207.615 89.3205C207.627 89.3215 207.639 89.3229 207.651 89.3248C208.028 89.385 208.402 89.4451 208.777 89.5053L208.782 89.506C209.158 89.5664 209.534 89.6268 209.912 89.6871C209.928 89.6897 209.943 89.6931 209.959 89.6973C211.564 90.1294 213.578 90.956 214.919 92.6023C216.284 94.2771 216.886 96.7153 215.826 100.208C215.763 100.508 215.699 100.81 215.636 101.111C215.554 101.498 215.472 101.885 215.39 102.271C215.372 102.408 215.355 102.539 215.338 102.666L215.338 102.669C215.234 103.46 215.155 104.054 215.209 104.627C215.268 105.259 215.493 105.876 216.115 106.653C216.948 107.696 217.89 109.615 218.281 111.799C218.673 113.985 218.523 116.497 217.091 118.682L217.081 118.699C217.07 118.719 217.053 118.748 217.031 118.785C216.988 118.86 216.924 118.969 216.84 119.106C216.674 119.38 216.43 119.769 216.122 120.229C215.505 121.149 214.624 122.363 213.568 123.528C212.516 124.689 211.272 125.822 209.928 126.561C208.581 127.301 207.09 127.666 205.586 127.208C205.34 127.134 205.201 126.873 205.276 126.627C205.351 126.381 205.611 126.243 205.857 126.318C205.872 126.322 205.886 126.326 205.901 126.331ZM165.492 79.4203C165.501 79.4171 165.513 79.4107 165.532 79.4012C165.52 79.4107 165.507 79.4171 165.492 79.4203Z" fill="black"/>
<path fill-rule="evenodd" clip-rule="evenodd" d="M194.047 139.918L194.146 140.061L194.145 140.062L194.142 140.064L194.131 140.072C194.121 140.079 194.106 140.089 194.086 140.102C194.047 140.129 193.99 140.167 193.915 140.216C193.766 140.314 193.549 140.454 193.276 140.621C192.731 140.956 191.962 141.401 191.066 141.844C189.282 142.727 186.97 143.616 184.922 143.582C184.844 143.581 184.776 143.528 184.756 143.452C184.733 143.366 184.713 143.283 184.693 143.2C184.619 142.897 184.549 142.609 184.369 142.272C184.142 141.848 183.736 141.343 182.913 140.687C182.842 140.629 182.826 140.526 182.879 140.451C182.931 140.375 183.033 140.353 183.112 140.401C184.389 141.168 186.416 141.391 188.488 141.223C190.554 141.056 192.622 140.504 193.962 139.765C194.044 139.72 194.146 139.747 194.195 139.826C194.244 139.905 194.223 140.008 194.146 140.061C194.147 140.061 194.146 140.061 194.047 139.918Z" fill="black"/>
<path d="M82.0174 256.617C81.7603 256.617 81.5518 256.826 81.5518 257.083C81.5518 257.34 81.7603 257.548 82.0174 257.548V256.617ZM184.437 257.548C184.694 257.548 184.903 257.34 184.903 257.083C184.903 256.826 184.694 256.617 184.437 256.617V257.548ZM48.4434 261.478C48.1862 261.478 47.9778 261.686 47.9778 261.943C47.9778 262.2 48.1862 262.409 48.4434 262.409V261.478ZM304.998 262.409C305.255 262.409 305.463 262.2 305.463 261.943C305.463 261.686 305.255 261.478 304.998 261.478V262.409ZM123.112 186.744L123.54 186.56L123.54 186.56L123.112 186.744ZM151.165 252.273V252.739H151.87L151.593 252.09L151.165 252.273ZM79.9903 252.273L79.5679 252.469L79.693 252.739H79.9903V252.273ZM51.0021 189.725L51.4245 189.529L51.4244 189.529L51.0021 189.725ZM183.545 157.053C183.373 156.862 183.078 156.847 182.888 157.019C182.697 157.192 182.682 157.486 182.854 157.677L183.545 157.053ZM207.941 155.887C208.124 155.707 208.127 155.413 207.947 155.229C207.767 155.045 207.472 155.043 207.289 155.223L207.941 155.887ZM230.789 168.669C230.599 168.496 230.305 168.509 230.131 168.699C229.958 168.889 229.971 169.183 230.161 169.357L230.789 168.669ZM246.092 210.335L246.549 210.249L246.548 210.24L246.545 210.23L246.092 210.335ZM157.503 251.584C157.329 251.774 157.342 252.068 157.531 252.242C157.721 252.415 158.016 252.403 158.189 252.213L157.503 251.584ZM162.943 247.955C163.176 247.846 163.276 247.569 163.167 247.336C163.058 247.103 162.781 247.003 162.548 247.112L162.943 247.955ZM163.582 251.722C163.401 251.903 163.4 252.198 163.582 252.38C163.764 252.562 164.059 252.562 164.241 252.38L163.582 251.722ZM168.13 248.827C168.388 248.827 168.596 248.619 168.596 248.362C168.596 248.105 168.388 247.896 168.13 247.896V248.827ZM158.552 221.097L159.016 221.067L158.989 220.652L158.573 220.632L158.552 221.097ZM158.241 221.043L158.129 221.495L158.133 221.496L158.241 221.043ZM154.752 217.389L155.206 217.286L155.206 217.286L154.752 217.389ZM154.006 206.668L154.472 206.679L154.472 206.679L154.006 206.668ZM154.756 197.579L155.217 197.642L155.217 197.642L154.756 197.579ZM156.655 180.718L157.121 180.723V180.723L156.655 180.718ZM161.44 171.248L161.744 171.6L161.745 171.6L161.44 171.248ZM181.014 158.965L180.809 158.547L180.809 158.547L181.014 158.965ZM185.09 152.612L184.625 152.593V152.594L185.09 152.612ZM184.903 143.612L184.439 143.64L184.439 143.641L184.903 143.612ZM183.455 140.742L183.161 141.103L183.162 141.104L183.455 140.742ZM172.284 113.896L172.729 114.035L172.729 114.035L172.284 113.896ZM172.912 110.452L172.447 110.436V110.436L172.912 110.452ZM172.847 108.302L173.31 108.258L173.31 108.256L172.847 108.302ZM172.408 104.22L171.947 104.281L171.947 104.284L172.408 104.22ZM172.206 102.747L171.742 102.786L171.743 102.788L172.206 102.747ZM177.028 252.273V252.739H177.494V252.273H177.028ZM79.981 252.273V251.808H79.278L79.5524 252.455L79.981 252.273ZM83.3947 260.327L83.8236 260.146L83.8234 260.146L83.3947 260.327ZM85.686 261.886L85.6863 261.421H85.686V261.886ZM182.597 261.94L182.596 262.406H182.597V261.94ZM184.925 258.346L185.36 258.179L185.36 258.179L184.925 258.346ZM183.218 253.914L182.784 254.082L182.784 254.082L183.218 253.914ZM177.028 252.27V251.804H176.563V252.27H177.028ZM245.435 228.836C245.434 228.579 245.225 228.371 244.968 228.372C244.711 228.373 244.503 228.582 244.504 228.839L245.435 228.836ZM247.892 248.74L248.349 248.653L248.349 248.653L247.892 248.74ZM242.638 254.762L242.691 254.3L242.689 254.299L242.638 254.762ZM238.611 253.94L238.736 253.491L238.734 253.491L238.611 253.94ZM238.468 253.899L238.342 254.347L238.346 254.348L238.468 253.899ZM237.52 253.616L237.378 254.059L237.381 254.06L237.52 253.616ZM236.435 253.324L236.534 252.869L236.532 252.869L236.435 253.324ZM178.232 252.276V252.742H178.313L178.389 252.714L178.232 252.276ZM177.028 252.276L177.032 251.811H177.029L177.028 252.276ZM153.792 252.064L153.351 251.913L153.144 252.521L153.786 252.529L153.792 252.064ZM164.661 242.295L164.505 241.856L164.505 241.856L164.661 242.295ZM172.809 241.435L172.868 240.973L172.868 240.973L172.809 241.435ZM182.948 240.638L183.092 241.081L183.092 241.08L182.948 240.638ZM232.522 238.924C232.766 239.005 233.03 238.874 233.112 238.63C233.193 238.386 233.062 238.122 232.818 238.041L232.522 238.924ZM249.166 223.24L248.718 223.365L248.718 223.366L249.166 223.24ZM245.314 228.694L245.5 229.121L245.552 229.099L245.597 229.064L245.314 228.694ZM183.482 254.331C183.228 254.373 183.056 254.612 183.098 254.866C183.139 255.12 183.379 255.292 183.632 255.25L183.482 254.331ZM238.472 253.895L238.348 254.344L238.363 254.348L238.378 254.352L238.472 253.895ZM238.615 253.933H239.08V253.578L238.737 253.484L238.615 253.933ZM238.615 253.937H238.149V254.017L238.176 254.094L238.615 253.937ZM241.043 262.1C241.129 262.342 241.396 262.468 241.638 262.382C241.88 262.295 242.006 262.028 241.919 261.786L241.043 262.1ZM231.405 170.108C231.629 169.983 231.71 169.699 231.584 169.475C231.459 169.25 231.176 169.17 230.951 169.295L231.405 170.108ZM218.549 227.853L218.092 227.941L218.092 227.941L218.549 227.853ZM221.92 231.372C222.177 231.361 222.377 231.144 222.366 230.887C222.355 230.63 222.138 230.431 221.881 230.442L221.92 231.372ZM224.702 231.003C224.639 230.754 224.386 230.602 224.137 230.665C223.888 230.728 223.737 230.981 223.8 231.231L224.702 231.003ZM225.161 236.628C225.224 236.877 225.477 237.028 225.727 236.965C225.976 236.902 226.127 236.649 226.064 236.4L225.161 236.628ZM217.558 228.759C217.398 228.558 217.105 228.525 216.904 228.686C216.703 228.846 216.67 229.139 216.831 229.34L217.558 228.759ZM206.836 126.176C207.08 126.095 207.211 125.831 207.13 125.587C207.048 125.343 206.784 125.212 206.54 125.293L206.836 126.176ZM200.728 142.399L200.263 142.386C200.263 142.398 200.263 142.411 200.263 142.423L200.728 142.399ZM200.766 143.12L200.301 143.144C200.301 143.157 200.303 143.17 200.304 143.184L200.766 143.12ZM210.655 157.104L210.829 156.672L210.828 156.672L210.655 157.104ZM213.139 158.196L212.934 158.614L212.934 158.614L213.139 158.196ZM231.248 170.465C231.401 170.671 231.693 170.715 231.9 170.561C232.106 170.408 232.15 170.117 231.996 169.91L231.248 170.465ZM312.714 46.1826L312.283 46.3582V46.3582L312.714 46.1826ZM290.877 102.62L291.065 103.045L291.065 103.045L290.877 102.62ZM247.612 84.3873L248.043 84.2118V84.2117L247.612 84.3873ZM261.59 48.2684L261.401 47.8427L261.401 47.8428L261.59 48.2684ZM289.279 59.9356L289.71 59.7601V59.7601L289.279 59.9356ZM280.334 83.0507L280.146 82.625L280.146 82.6251L280.334 83.0507ZM262.613 75.5838L263.044 75.4083L263.044 75.4082L262.613 75.5838ZM268.337 60.7895L268.525 61.2152L268.525 61.2152L268.337 60.7895ZM279.678 65.5675L280.109 65.3921L280.109 65.3919L279.678 65.5675ZM218.824 230.499L218.72 230.952L218.824 230.499ZM82.0174 257.548H184.437V256.617H82.0174V257.548ZM48.4434 262.409H304.998V261.478H48.4434V262.409ZM120.019 185.117C121.16 185.117 122.207 185.817 122.684 186.927L123.54 186.56C122.923 185.124 121.551 184.186 120.019 184.186V185.117ZM122.684 186.927L150.737 252.456L151.593 252.09L123.54 186.56L122.684 186.927ZM151.165 251.807H79.9903V252.739H151.165V251.807ZM51.4244 189.529C50.4663 187.463 51.9262 185.117 54.052 185.117V184.186C51.1847 184.186 49.3615 187.294 50.5797 189.921L51.4244 189.529ZM183.2 157.365C182.854 157.677 182.854 157.677 182.855 157.677C182.855 157.677 182.855 157.678 182.855 157.678C182.856 157.679 182.857 157.68 182.858 157.681C182.859 157.683 182.862 157.685 182.865 157.689C182.871 157.695 182.88 157.705 182.891 157.717C182.914 157.741 182.947 157.775 182.99 157.819C183.075 157.907 183.201 158.031 183.365 158.184C183.694 158.489 184.176 158.906 184.797 159.363C186.038 160.274 187.845 161.349 190.101 161.989C194.652 163.279 200.926 162.77 207.941 155.887L207.289 155.223C200.494 161.89 194.56 162.285 190.355 161.093C188.234 160.492 186.527 159.478 185.348 158.612C184.76 158.18 184.305 157.786 183.999 157.502C183.847 157.36 183.731 157.245 183.655 157.167C183.617 157.128 183.588 157.099 183.57 157.079C183.561 157.069 183.554 157.062 183.55 157.058C183.548 157.055 183.546 157.054 183.546 157.053C183.545 157.053 183.545 157.052 183.545 157.052C183.545 157.052 183.545 157.052 183.545 157.052C183.545 157.052 183.545 157.053 183.2 157.365ZM230.161 169.357C232.216 171.233 234.133 174.327 235.875 178.058C237.612 181.78 239.156 186.093 240.483 190.371C243.138 198.928 244.913 207.297 245.638 210.44L246.545 210.23C245.825 207.106 244.04 198.694 241.372 190.095C240.038 185.796 238.48 181.439 236.718 177.664C234.961 173.9 232.982 170.672 230.789 168.669L230.161 169.357ZM157.846 251.898C158.189 252.213 158.189 252.213 158.189 252.213C158.189 252.213 158.189 252.213 158.189 252.213C158.189 252.213 158.189 252.213 158.19 252.212C158.19 252.212 158.191 252.211 158.191 252.211C158.193 252.209 158.195 252.207 158.198 252.203C158.204 252.197 158.213 252.187 158.226 252.174C158.25 252.147 158.286 252.109 158.332 252.059C158.425 251.96 158.559 251.816 158.726 251.642C159.059 251.293 159.519 250.821 160.028 250.327C160.537 249.832 161.091 249.319 161.612 248.885C162.141 248.445 162.606 248.113 162.943 247.955L162.548 247.112C162.096 247.323 161.554 247.722 161.016 248.17C160.47 248.624 159.897 249.156 159.379 249.659C158.86 250.164 158.391 250.644 158.053 250.999C157.883 251.176 157.746 251.322 157.651 251.424C157.604 251.474 157.567 251.514 157.542 251.542C157.529 251.555 157.519 251.566 157.513 251.573C157.51 251.576 157.507 251.579 157.505 251.581C157.504 251.582 157.504 251.583 157.503 251.583C157.503 251.583 157.503 251.584 157.503 251.584C157.503 251.584 157.503 251.584 157.503 251.584C157.503 251.584 157.503 251.584 157.846 251.898ZM163.912 252.051C164.241 252.38 164.241 252.38 164.241 252.38C164.241 252.38 164.241 252.38 164.241 252.38C164.241 252.38 164.241 252.38 164.241 252.38C164.242 252.379 164.242 252.379 164.243 252.378C164.245 252.376 164.247 252.373 164.251 252.37C164.258 252.363 164.268 252.353 164.281 252.34C164.308 252.313 164.348 252.273 164.399 252.223C164.5 252.123 164.645 251.98 164.822 251.808C165.174 251.463 165.65 251.005 166.14 250.547C166.633 250.088 167.135 249.634 167.544 249.298C167.75 249.129 167.923 248.996 168.055 248.908C168.122 248.863 168.169 248.837 168.198 248.823C168.242 248.801 168.208 248.827 168.13 248.827V247.896C167.987 247.896 167.862 247.951 167.794 247.984C167.711 248.024 167.624 248.076 167.539 248.133C167.369 248.246 167.167 248.402 166.952 248.579C166.521 248.934 166.002 249.403 165.505 249.866C165.007 250.33 164.527 250.794 164.171 251.141C163.993 251.315 163.846 251.46 163.744 251.561C163.692 251.612 163.652 251.652 163.625 251.679C163.611 251.693 163.6 251.704 163.593 251.711C163.59 251.714 163.587 251.717 163.585 251.719C163.584 251.72 163.584 251.72 163.583 251.721C163.583 251.721 163.583 251.721 163.583 251.721C163.583 251.721 163.582 251.722 163.582 251.722C163.582 251.722 163.582 251.722 163.912 252.051ZM153.381 251.714C153.83 251.84 153.83 251.84 153.83 251.839C153.83 251.839 153.83 251.839 153.83 251.839C153.83 251.838 153.831 251.837 153.831 251.836C153.832 251.833 153.833 251.829 153.834 251.824C153.837 251.814 153.841 251.799 153.847 251.779C153.858 251.739 153.874 251.679 153.895 251.602C153.938 251.446 154 251.218 154.079 250.923C154.237 250.334 154.462 249.482 154.73 248.43C155.266 246.324 155.973 243.414 156.661 240.195C158.032 233.777 159.34 226.063 159.016 221.067L158.087 221.127C158.401 225.977 157.124 233.571 155.75 240C155.066 243.205 154.361 246.103 153.828 248.2C153.561 249.248 153.337 250.096 153.18 250.682C153.101 250.975 153.04 251.202 152.997 251.355C152.976 251.432 152.96 251.491 152.949 251.53C152.944 251.55 152.94 251.565 152.937 251.574C152.936 251.579 152.935 251.583 152.934 251.585C152.934 251.587 152.933 251.588 152.933 251.588C152.933 251.588 152.933 251.589 152.933 251.589C152.933 251.589 152.933 251.589 153.381 251.714ZM158.573 220.632C158.551 220.631 158.477 220.621 158.348 220.59L158.133 221.496C158.272 221.529 158.416 221.557 158.53 221.562L158.573 220.632ZM158.352 220.591C156.805 220.211 155.58 218.932 155.206 217.286L154.298 217.492C154.745 219.46 156.219 221.025 158.129 221.495L158.352 220.591ZM155.206 217.286C154.637 214.79 154.366 211.233 154.472 206.679L153.541 206.657C153.435 211.247 153.705 214.89 154.298 217.493L155.206 217.286ZM154.472 206.679C154.54 203.654 154.805 200.64 155.217 197.642L154.294 197.516C153.879 200.543 153.61 203.593 153.541 206.658L154.472 206.679ZM155.217 197.642C156.156 190.732 157.077 184.698 157.121 180.723L156.19 180.713C156.146 184.612 155.239 190.559 154.294 197.516L155.217 197.642ZM157.121 180.723C157.159 177.188 159.079 173.905 161.744 171.6L161.135 170.896C158.323 173.327 156.232 176.845 156.19 180.713L157.121 180.723ZM161.745 171.6C165.226 168.585 171.241 164.289 181.22 159.383L180.809 158.547C170.771 163.482 164.686 167.821 161.135 170.896L161.745 171.6ZM181.219 159.383C183.754 158.137 185.44 155.541 185.555 152.631L184.625 152.594C184.523 155.169 183.031 157.455 180.809 158.547L181.219 159.383ZM185.555 152.631C185.681 149.511 185.505 145.77 185.368 143.583L184.439 143.641C184.575 145.822 184.748 149.523 184.625 152.593L185.555 152.631ZM185.368 143.584C185.292 142.332 184.712 141.161 183.748 140.38L183.162 141.104C183.913 141.713 184.378 142.637 184.439 143.64L185.368 143.584ZM183.748 140.38C181.72 138.736 177.722 136.269 174.821 132.116C171.95 128.005 170.171 122.242 172.729 114.035L171.84 113.758C169.193 122.25 171.028 128.311 174.058 132.649C177.058 136.945 181.247 139.551 183.161 141.103L183.748 140.38ZM172.729 114.035C173.086 112.889 173.335 111.691 173.377 110.468L172.447 110.436C172.408 111.555 172.179 112.668 171.84 113.758L172.729 114.035ZM173.377 110.468C173.403 109.73 173.381 108.993 173.31 108.258L172.383 108.347C172.45 109.041 172.471 109.738 172.447 110.436L173.377 110.468ZM173.31 108.256C173.184 106.991 173.086 105.717 172.87 104.156L171.947 104.284C172.16 105.821 172.255 107.061 172.384 108.349L173.31 108.256ZM172.87 104.159C172.799 103.627 172.713 103.189 172.67 102.706L171.743 102.788C171.787 103.289 171.887 103.828 171.947 104.281L172.87 104.159ZM172.67 102.708C172.653 102.499 172.651 102.365 172.634 102.138C172.62 101.95 172.597 101.735 172.537 101.542C172.476 101.349 172.356 101.111 172.101 100.971C171.845 100.83 171.56 100.847 171.298 100.921L171.554 101.817C171.693 101.777 171.697 101.811 171.653 101.787C171.609 101.763 171.622 101.738 171.648 101.821C171.674 101.904 171.692 102.028 171.705 102.207C171.716 102.347 171.727 102.607 171.742 102.786L172.67 102.708ZM177.028 251.808H79.981V252.739H177.028V251.808ZM79.5524 252.455L82.966 260.509L83.8234 260.146L80.4097 252.091L79.5524 252.455ZM82.9658 260.509C83.4363 261.622 84.4987 262.352 85.686 262.352V261.421C84.8899 261.421 84.1552 260.931 83.8236 260.146L82.9658 260.509ZM85.6858 262.352L182.596 262.406L182.597 261.475L85.6863 261.421L85.6858 262.352ZM182.597 262.406C184.727 262.406 186.129 260.177 185.36 258.179L184.491 258.514C185.046 259.957 184.016 261.475 182.597 261.475V262.406ZM183.653 253.747C183.205 252.583 182.118 251.804 180.89 251.804V252.736C181.713 252.736 182.467 253.258 182.784 254.082L183.653 253.747ZM176.563 252.27V252.273H177.494V252.27H176.563ZM244.504 228.839C244.51 230.736 244.965 234.259 245.552 238.02C246.141 241.794 246.869 245.847 247.434 248.826L248.349 248.653C247.786 245.68 247.059 241.637 246.472 237.876C245.883 234.102 245.441 230.65 245.435 228.836L244.504 228.839ZM247.434 248.826C248.014 251.893 245.587 254.634 242.691 254.3L242.584 255.225C246.173 255.639 249.032 252.266 248.349 248.653L247.434 248.826ZM242.689 254.299C241.584 254.176 240.278 253.921 238.736 253.491L238.486 254.388C240.066 254.829 241.422 255.094 242.586 255.225L242.689 254.299ZM238.734 253.491C238.716 253.486 238.697 253.48 238.672 253.473C238.649 253.466 238.62 253.457 238.591 253.449L238.346 254.348C238.364 254.353 238.383 254.358 238.408 254.366C238.431 254.372 238.46 254.381 238.489 254.389L238.734 253.491ZM238.595 253.45C238.294 253.366 237.979 253.272 237.66 253.172L237.381 254.06C237.708 254.163 238.033 254.26 238.342 254.347L238.595 253.45ZM237.662 253.173C237.292 253.054 236.917 252.952 236.534 252.869L236.337 253.779C236.687 253.855 237.034 253.949 237.378 254.059L237.662 253.173ZM236.532 252.869C231.256 251.74 220.244 250.192 208.768 249.567C197.315 248.944 185.3 249.234 178.074 251.838L178.389 252.714C185.418 250.182 197.257 249.873 208.718 250.497C220.156 251.119 231.118 252.663 236.338 253.779L236.532 252.869ZM178.232 251.811C178.191 251.811 178.157 251.816 178.129 251.822C178.101 251.828 178.079 251.836 178.062 251.842C178.046 251.848 178.034 251.854 178.027 251.857C178.023 251.859 178.02 251.861 178.018 251.862C178.017 251.862 178.016 251.863 178.016 251.863C178.015 251.863 178.015 251.863 178.015 251.863C178.014 251.864 178.016 251.863 178.017 251.862C178.018 251.862 178.021 251.86 178.024 251.859C178.031 251.856 178.043 251.85 178.058 251.844C178.073 251.838 178.095 251.831 178.122 251.825C178.149 251.819 178.183 251.814 178.222 251.814V252.745C178.262 252.745 178.297 252.74 178.325 252.734C178.353 252.727 178.375 252.72 178.391 252.714C178.407 252.707 178.42 252.702 178.427 252.698C178.431 252.696 178.434 252.695 178.436 252.694C178.437 252.693 178.438 252.693 178.438 252.693C178.439 252.693 178.439 252.692 178.439 252.692C178.439 252.692 178.438 252.693 178.437 252.693C178.435 252.694 178.433 252.695 178.429 252.697C178.423 252.7 178.411 252.706 178.396 252.711C178.381 252.717 178.359 252.725 178.332 252.731C178.305 252.737 178.271 252.742 178.232 252.742V251.811ZM178.222 251.814C177.84 251.814 177.443 251.814 177.032 251.811L177.025 252.742C177.44 252.745 177.84 252.745 178.222 252.745V251.814ZM177.029 251.811C172.811 251.803 167.004 251.75 162.25 251.698C159.873 251.673 157.76 251.648 156.241 251.629C155.482 251.62 154.871 251.612 154.45 251.606C154.239 251.604 154.076 251.602 153.966 251.6C153.911 251.599 153.869 251.599 153.841 251.599C153.826 251.598 153.816 251.598 153.809 251.598C153.805 251.598 153.802 251.598 153.801 251.598C153.8 251.598 153.799 251.598 153.799 251.598C153.798 251.598 153.798 251.598 153.798 251.598C153.798 251.598 153.798 251.598 153.792 252.064C153.786 252.529 153.786 252.529 153.786 252.529C153.786 252.529 153.786 252.529 153.786 252.529C153.787 252.529 153.787 252.529 153.788 252.529C153.79 252.529 153.793 252.529 153.796 252.529C153.803 252.529 153.814 252.529 153.828 252.53C153.857 252.53 153.899 252.531 153.954 252.531C154.064 252.533 154.227 252.535 154.438 252.538C154.859 252.543 155.47 252.551 156.23 252.56C157.749 252.579 159.862 252.604 162.24 252.63C166.994 252.681 172.805 252.734 177.028 252.742L177.029 251.811ZM153.792 252.064C154.232 252.214 154.232 252.214 154.232 252.214C154.232 252.214 154.232 252.214 154.232 252.214C154.232 252.214 154.232 252.214 154.232 252.214C154.232 252.214 154.233 252.213 154.233 252.212C154.234 252.21 154.235 252.207 154.237 252.201C154.241 252.191 154.247 252.174 154.255 252.152C154.272 252.107 154.299 252.038 154.336 251.949C154.411 251.77 154.529 251.507 154.697 251.18C155.033 250.526 155.571 249.619 156.371 248.616C157.97 246.613 160.619 244.229 164.817 242.734L164.505 241.856C160.119 243.418 157.333 245.918 155.643 248.035C154.799 249.093 154.229 250.054 153.869 250.754C153.689 251.104 153.561 251.39 153.477 251.59C153.435 251.69 153.405 251.768 153.384 251.823C153.374 251.85 153.366 251.872 153.36 251.887C153.358 251.895 153.355 251.901 153.354 251.905C153.353 251.907 153.352 251.909 153.352 251.911C153.352 251.911 153.352 251.912 153.351 251.912C153.351 251.913 153.351 251.913 153.351 251.913C153.351 251.913 153.351 251.913 153.792 252.064ZM164.817 242.734C167.36 241.829 170.076 241.556 172.751 241.896L172.868 240.973C170.053 240.615 167.19 240.901 164.505 241.856L164.817 242.734ZM172.751 241.896C175.367 242.23 178.365 242.617 183.092 241.081L182.804 240.195C178.272 241.668 175.437 241.3 172.868 240.973L172.751 241.896ZM183.092 241.08C190.313 238.731 208.371 230.849 232.522 238.924L232.818 238.041C208.333 229.854 189.984 237.859 182.804 240.195L183.092 241.08ZM245.634 210.421C246.57 215.431 247.993 220.755 248.718 223.365L249.615 223.116C248.892 220.512 247.478 215.22 246.549 210.249L245.634 210.421ZM248.718 223.366C248.816 223.715 248.762 224.121 248.557 224.585C248.351 225.049 248.01 225.535 247.594 226.013C246.761 226.968 245.693 227.819 245.032 228.324L245.597 229.064C246.266 228.554 247.398 227.655 248.296 226.624C248.744 226.11 249.151 225.544 249.408 224.962C249.666 224.379 249.791 223.742 249.615 223.115L248.718 223.366ZM183.557 254.791C183.632 255.25 183.632 255.25 183.633 255.25C183.633 255.25 183.633 255.25 183.634 255.25C183.635 255.25 183.637 255.249 183.639 255.249C183.643 255.248 183.649 255.247 183.658 255.246C183.676 255.243 183.702 255.239 183.736 255.233C183.805 255.222 183.908 255.206 184.044 255.185C184.315 255.143 184.715 255.081 185.231 255.005C186.264 254.852 187.76 254.638 189.613 254.399C193.319 253.919 198.452 253.332 204.157 252.904C215.588 252.045 229.244 251.83 238.348 254.344L238.595 253.447C229.319 250.885 215.517 251.117 204.087 251.975C198.361 252.405 193.211 252.994 189.493 253.475C187.634 253.716 186.132 253.93 185.095 254.083C184.576 254.16 184.173 254.222 183.9 254.265C183.764 254.286 183.659 254.303 183.589 254.314C183.554 254.32 183.527 254.324 183.51 254.327C183.501 254.328 183.494 254.329 183.489 254.33C183.487 254.33 183.485 254.331 183.484 254.331C183.483 254.331 183.483 254.331 183.483 254.331C183.482 254.331 183.482 254.331 183.557 254.791ZM238.378 254.352C238.406 254.357 238.418 254.362 238.492 254.383L238.737 253.484C238.718 253.479 238.63 253.453 238.565 253.439L238.378 254.352ZM238.149 253.933V253.937H239.08V253.933H238.149ZM238.176 254.094L241.043 262.1L241.919 261.786L239.053 253.78L238.176 254.094ZM231.178 169.702C230.951 169.295 230.951 169.295 230.95 169.296C230.95 169.296 230.949 169.296 230.949 169.296C230.947 169.297 230.946 169.298 230.944 169.299C230.941 169.301 230.936 169.304 230.93 169.307C230.917 169.314 230.9 169.324 230.878 169.338C230.834 169.364 230.77 169.403 230.688 169.455C230.525 169.559 230.29 169.716 229.997 169.931C229.41 170.362 228.588 171.025 227.633 171.964C225.722 173.844 223.281 176.827 221.124 181.262C216.808 190.138 213.65 204.781 218.092 227.941L219.006 227.765C214.594 204.761 217.75 190.329 221.962 181.67C224.069 177.337 226.445 174.439 228.286 172.628C229.207 171.722 229.994 171.088 230.547 170.682C230.824 170.48 231.042 170.334 231.189 170.24C231.263 170.193 231.319 170.159 231.355 170.137C231.373 170.126 231.387 170.119 231.395 170.114C231.399 170.111 231.402 170.11 231.404 170.109C231.405 170.108 231.405 170.108 231.405 170.108C231.405 170.108 231.405 170.108 231.405 170.108C231.405 170.108 231.405 170.108 231.178 169.702ZM218.092 227.941C218.26 228.814 218.784 229.677 219.457 230.313C220.127 230.945 221.008 231.411 221.92 231.372L221.881 230.442C221.307 230.467 220.658 230.166 220.097 229.636C219.539 229.109 219.131 228.413 219.006 227.765L218.092 227.941ZM223.8 231.231L225.161 236.628L226.064 236.4L224.702 231.003L223.8 231.231ZM206.688 125.735C206.54 125.293 206.54 125.294 206.539 125.294C206.539 125.294 206.538 125.294 206.538 125.294C206.537 125.295 206.536 125.295 206.535 125.295C206.533 125.296 206.531 125.297 206.528 125.298C206.523 125.3 206.516 125.302 206.508 125.305C206.492 125.311 206.47 125.32 206.444 125.331C206.393 125.353 206.321 125.385 206.234 125.431C206.058 125.523 205.818 125.668 205.533 125.887C204.962 126.328 204.22 127.064 203.474 128.268C201.981 130.673 200.479 134.927 200.263 142.386L201.194 142.413C201.407 135.061 202.885 130.983 204.265 128.759C204.954 127.647 205.622 126.995 206.102 126.625C206.342 126.439 206.537 126.323 206.666 126.256C206.73 126.222 206.778 126.2 206.808 126.188C206.822 126.182 206.832 126.178 206.837 126.176C206.839 126.175 206.841 126.175 206.84 126.175C206.84 126.175 206.84 126.175 206.839 126.175C206.839 126.175 206.839 126.176 206.838 126.176C206.838 126.176 206.837 126.176 206.837 126.176C206.837 126.176 206.836 126.176 206.688 125.735ZM200.263 142.423C200.276 142.661 200.288 142.902 200.301 143.144L201.231 143.096C201.218 142.854 201.206 142.613 201.193 142.375L200.263 142.423ZM200.304 143.184C201.685 153.153 208.158 156.608 210.483 157.537L210.828 156.672C208.689 155.817 202.545 152.579 201.227 143.056L200.304 143.184ZM210.482 157.536C211.315 157.87 212.134 158.221 212.934 158.614L213.345 157.779C212.516 157.372 211.674 157.011 210.829 156.672L210.482 157.536ZM212.934 158.614C215.174 159.713 219.268 162.011 223.06 164.381C224.955 165.565 226.767 166.763 228.23 167.835C229.71 168.918 230.784 169.837 231.248 170.465L231.996 169.91C231.437 169.155 230.252 168.161 228.78 167.083C227.292 165.993 225.459 164.782 223.553 163.591C219.745 161.211 215.622 158.896 213.344 157.778L212.934 158.614ZM245.301 18.1215C271.254 6.62025 301.247 19.2417 312.283 46.3582L313.146 46.0071C301.922 18.4294 271.382 5.54511 244.924 17.2702L245.301 18.1215ZM312.283 46.3582C321.097 68.0137 311.411 93.0086 290.688 102.194L291.065 103.045C312.271 93.646 322.14 68.1056 313.146 46.0071L312.283 46.3582ZM290.688 102.194C274.168 109.514 255.072 101.483 248.043 84.2118L247.181 84.5628C254.397 102.296 274.04 110.589 291.065 103.045L290.688 102.194ZM248.043 84.2117C242.435 70.4327 248.601 54.5335 261.779 48.6941L261.401 47.8428C247.742 53.8959 241.392 70.3408 247.181 84.5628L248.043 84.2117ZM261.779 48.6941C272.262 44.0502 284.384 49.1414 288.848 60.111L289.71 59.7601C285.058 48.3289 272.389 42.9752 261.401 47.8427L261.779 48.6941ZM288.848 60.111C292.404 68.8519 288.491 78.9286 280.146 82.625L280.523 83.4764C289.351 79.5662 293.447 68.9437 289.71 59.7601L288.848 60.111ZM280.146 82.6251C273.527 85.5578 265.867 82.346 263.044 75.4083L262.182 75.7592C265.192 83.1585 273.399 86.6328 280.523 83.4764L280.146 82.6251ZM263.044 75.4082C260.799 69.8962 263.273 63.5433 268.525 61.2152L268.148 60.3639C262.413 62.9058 259.757 69.8042 262.182 75.7594L263.044 75.4082ZM268.525 61.2152C272.669 59.3779 277.472 61.3861 279.247 65.7431L280.109 65.3919C278.147 60.5739 272.797 58.3026 268.148 60.3639L268.525 61.2152ZM279.247 65.7429C280.649 69.1917 279.102 73.1571 275.827 74.6089L276.204 75.4602C279.962 73.7944 281.692 69.2833 280.109 65.3921L279.247 65.7429ZM54.052 185.117H120.019V184.186H54.052V185.117ZM80.4128 252.077L51.4245 189.529L50.5796 189.92L79.5679 252.469L80.4128 252.077ZM185.36 258.179L183.653 253.747L182.784 254.082L184.491 258.514L185.36 258.179ZM180.89 251.804H177.028V252.736H180.89V251.804ZM216.831 229.34C216.903 229.431 217.162 229.783 217.48 230.118C217.641 230.287 217.828 230.464 218.029 230.612C218.225 230.756 218.462 230.893 218.72 230.952L218.928 230.045C218.844 230.026 218.727 229.969 218.581 229.862C218.439 229.757 218.294 229.622 218.155 229.476C217.873 229.18 217.66 228.887 217.558 228.759L216.831 229.34ZM218.72 230.952C221.202 231.521 226.463 231.683 231.776 231.402C234.443 231.261 237.141 231.007 239.533 230.633C241.916 230.26 244.026 229.763 245.5 229.121L245.129 228.268C243.766 228.861 241.749 229.344 239.389 229.713C237.036 230.081 234.371 230.332 231.727 230.472C226.421 230.752 221.273 230.582 218.928 230.045L218.72 230.952Z" fill="black"/>
<path d="M99.7017 228.225C104.103 228.225 107.67 224.502 107.67 219.91C107.67 215.318 104.103 211.595 99.7017 211.595C95.3009 211.595 91.7333 215.318 91.7333 219.91C91.7333 224.502 95.3009 228.225 99.7017 228.225Z" fill="black"/>
<path d="M298.441 240.165C308.317 240.165 316.323 231.81 316.323 221.504C316.323 211.198 308.317 202.843 298.441 202.843C288.564 202.843 280.558 211.198 280.558 221.504C280.558 231.81 288.564 240.165 298.441 240.165Z" fill="#FED958"/>
<path d="M269.567 28.2741C275.637 28.2741 280.558 23.1401 280.558 16.8069C280.558 10.4738 275.637 5.33984 269.567 5.33984C263.498 5.33984 258.577 10.4738 258.577 16.8069C258.577 23.1401 263.498 28.2741 269.567 28.2741Z" fill="#BB2F84"/>
<path d="M67.7413 112.255C72.3156 112.255 76.0237 108.469 76.0237 103.798C76.0237 99.1269 72.3156 95.3404 67.7413 95.3404C63.1671 95.3404 59.459 99.1269 59.459 103.798C59.459 108.469 63.1671 112.255 67.7413 112.255Z" fill="#FED958"/>
</svg>
