<svg width="857" height="774" viewBox="0 0 857 774" fill="none" xmlns="http://www.w3.org/2000/svg">
<path d="M454.556 478.697C454.502 478.594 454.442 478.485 454.389 478.383C454.369 478.349 454.329 478.342 454.295 478.335C454.282 478.267 454.262 478.199 454.242 478.13C454.209 478.021 454.048 478.021 453.962 478.048C453.881 478.076 453.728 478.151 453.761 478.267C453.781 478.342 453.808 478.424 453.821 478.499C453.821 478.513 453.828 478.533 453.828 478.547C453.828 478.56 453.828 478.567 453.828 478.581C453.828 478.601 453.828 478.608 453.828 478.594C453.828 478.622 453.828 478.649 453.828 478.676C452.88 478.99 452.987 480.67 454.155 480.67C455.29 480.67 455.424 479.072 454.556 478.697Z" fill="black"/>
<path d="M471.116 565.895C471.677 565.254 472.111 564.516 472.251 563.636C472.538 561.841 472.826 560.045 472.999 558.229C473.2 556.093 473.139 553.997 473.026 551.854C473.046 552.263 473.066 552.673 473.086 553.082C473.066 552.646 473.046 552.209 473.046 551.765C473.173 551.11 473.066 550.516 472.712 549.99C472.485 549.376 472.078 548.905 471.483 548.584C470.248 547.758 468.332 547.512 466.909 547.683C466.268 547.758 465.607 547.881 464.966 548.051C464.926 547.601 464.893 547.157 464.853 546.707C464.592 543.56 464.305 540.42 464.025 537.28C463.484 531.15 462.989 525.006 462.769 518.849C462.722 517.272 462.696 515.702 462.689 514.125C462.682 512.794 462.375 511.941 461.193 511.217C459.958 510.459 458.048 510.302 456.659 510.48C454.883 510.712 453.013 511.231 451.544 512.316C450.589 513.026 449.053 514.221 449.06 515.565C449.06 516.439 449.08 517.313 449.093 518.18C448.873 518.487 448.74 518.876 448.74 519.354C448.726 521.88 447.905 524.453 447.651 526.986C447.357 529.928 447.184 532.884 446.963 535.833C446.937 536.222 447.003 536.549 447.137 536.822C446.937 538.556 446.823 540.304 446.696 542.072C446.663 542.509 446.756 542.864 446.923 543.157C447.077 544.311 446.823 545.56 446.77 546.707C446.71 547.976 446.723 549.239 446.783 550.509C446.796 550.741 446.843 550.946 446.91 551.137C446.863 551.43 446.816 551.724 446.79 552.024C446.629 553.642 446.87 555.246 447.27 556.803C447.27 556.837 447.257 556.871 447.264 556.912C447.351 557.595 447.497 558.27 447.664 558.939C447.638 559.24 447.644 559.547 447.711 559.861C447.738 560.12 447.818 560.366 447.891 560.619C447.965 560.864 448.018 561.103 448.045 561.356C448.092 561.881 448.125 562.407 448.205 562.926C448.239 563.056 448.285 563.172 448.332 563.288C448.259 563.52 448.232 563.772 448.265 564.039C448.566 564.892 448.84 565.772 449.227 566.592C449.681 567.547 450.302 568.455 451.03 569.213C451.09 569.254 451.15 569.295 451.21 569.329C451.284 569.472 451.384 569.602 451.531 569.725C451.591 569.752 451.651 569.786 451.711 569.814C451.945 570.134 452.259 570.394 452.626 570.585C456.853 573.67 463.377 572.298 468.265 572.216C468.772 572.21 469.206 572.094 469.58 571.902C469.968 571.896 470.348 571.896 470.722 571.943C472.291 571.998 473.801 570.489 473.727 568.872C473.64 567.22 472.578 566.209 471.116 565.895Z" fill="black"/>
<path d="M683.985 217.498C632.788 217.498 587.721 244.953 561.551 286.538C546.386 310.628 537.559 339.476 537.559 370.467C537.559 454.955 603.119 523.443 683.985 523.443C764.857 523.443 830.417 454.955 830.417 370.467C830.417 285.985 764.857 217.498 683.985 217.498Z" fill="#007BE9"/>
<path d="M641.24 530.133C638.85 517.791 636.439 505.367 632.105 493.578C629.801 487.305 627.05 481.23 624.125 475.25C621.568 470.021 619.044 464.881 615.598 460.218C611.872 455.181 607.225 451.808 601.769 449.078C599.385 447.883 597.068 446.593 594.851 445.085C593.823 444.382 592.834 443.624 591.833 442.887C591.826 442.88 591.819 442.88 591.813 442.873C591.786 442.846 591.766 442.825 591.726 442.798C591.152 442.265 590.537 441.774 589.956 441.248C581.916 433.978 575.419 425.084 568.882 416.38C568.808 416.285 568.581 415.978 568.421 415.759C568.02 415.213 567.613 414.66 567.219 414.107C566.338 412.885 565.463 411.656 564.608 410.414C562.812 407.8 561.082 405.137 559.486 402.38C557.911 399.663 556.562 396.857 555.233 394.004C555.186 393.895 555.139 393.792 555.119 393.731C554.779 392.796 554.438 391.86 554.138 390.905C554.004 390.482 553.871 390.058 553.75 389.628C554.191 388.154 554.665 386.693 555.193 385.253C555.313 384.918 555.827 383.642 555.854 383.539C556.288 382.536 556.735 381.532 557.203 380.549C558.338 378.181 559.607 375.894 560.962 373.655C562.344 371.368 562.645 368.501 562.057 365.839C562.184 365.791 562.304 365.743 562.418 365.675C562.845 365.532 563.213 365.286 563.52 364.938C563.887 364.555 564.201 364.016 564.374 363.456C567.646 361.852 571.132 359.866 573.443 357.122C576.381 353.633 576.2 348.493 575.052 344.268C574.938 343.858 574.805 343.415 574.658 342.957C574.791 342.104 574.865 341.23 574.858 340.35C574.778 332.165 568.107 326.199 560.562 325.953C559.653 325.926 558.779 325.994 557.917 326.131C557.163 323.004 556.482 319.864 555.106 316.942C553.637 313.823 551.5 311.591 548.969 310.021L550.298 309.515C552.034 308.86 553.203 307.085 552.689 305.119C552.228 303.365 550.225 301.959 548.482 302.621C545.517 303.747 542.552 304.867 539.581 305.993C539.066 306.184 538.606 306.478 538.218 306.846C536.95 306.744 535.681 306.71 534.419 306.724C530.018 306.778 530.005 313.932 534.419 313.877C535.507 313.864 536.589 313.884 537.637 313.966C537.457 314.198 537.277 314.424 537.103 314.656C533.264 314.28 529.564 316.157 527.24 319.823C524.002 324.936 520.763 330.049 517.525 335.162C516.236 337.189 515.882 339.885 516.303 342.425C515.588 343.019 514.874 343.619 514.152 344.206C513.598 344.657 513.104 345.046 513.952 344.37C513.191 344.978 512.436 345.585 511.675 346.193C507.421 349.592 504.73 355.586 507.989 360.869C508.937 362.412 510.119 363.607 511.448 364.467C510.847 367.238 511.208 370.324 512.55 372.501C513.718 374.392 515.588 376.085 517.705 377.061C517.224 380.317 516.837 383.594 516.583 386.911C515.02 407.322 518.867 428.654 529.164 446.238C531.254 449.802 535.4 451.952 539.334 451.508C542.525 455.577 545.811 459.563 549.317 463.338C551.173 467.284 553.183 471.161 555.34 474.963C560.041 483.25 565.316 491.155 570.758 498.93C576.468 507.081 582.01 515.682 588.741 522.952C592.627 527.15 599.345 526.959 603.258 522.952C604.574 521.607 605.615 520.064 606.383 518.392C608.754 521.197 611.198 523.941 613.542 526.767C617.208 531.198 619.712 534.488 622.476 538.392C625.555 542.734 630.242 545.007 635.297 542.782C640.185 540.631 642.269 535.444 641.24 530.133Z" fill="white"/>
<path d="M642.041 510.357C640.325 506.698 639.19 502.336 638.616 498.329C638.522 497.681 638.195 497.135 637.741 496.711C635.791 492.233 634.042 487.68 632.452 483.052C632.512 482.595 632.472 482.124 632.299 481.68C631.745 480.287 631.103 478.943 630.422 477.612C630.429 477.052 630.309 476.458 630.008 475.85C628.065 471.925 626.115 467.993 623.598 464.43C622.857 463.379 622.075 462.355 621.281 461.338C621.488 459.925 620.787 458.56 619.631 457.679C617.842 456.321 616.253 454.716 614.436 453.399C614.069 453.133 613.695 452.88 613.314 452.634C613.061 452.027 612.613 451.474 611.925 451.044C611.024 450.484 610.123 449.931 609.221 449.378C608.914 449.105 608.587 448.914 608.259 448.791C604.674 446.607 601.068 444.463 597.469 442.313C595.385 441.064 593.308 439.781 591.165 438.647C590.243 438.156 589.282 437.705 588.347 437.214C588.307 436.251 587.9 435.337 587.038 434.777C586.878 434.231 586.544 433.698 585.97 433.221C582.17 430.053 578.704 426.544 575.085 423.206C575.099 422.756 575.038 422.292 574.905 421.862C574.972 421.855 575.045 421.848 575.112 421.841C579.479 421.5 579.512 414.346 575.112 414.687C574.23 414.756 573.369 414.865 572.514 414.988C572.681 414.394 572.708 413.773 572.488 413.185C571.059 409.376 567.56 407.882 564.054 406.687C563.5 406.496 561.763 405.868 561.63 405.854C561.67 405.724 561.45 403.772 561.383 403.308C561.102 401.492 560.782 399.683 560.441 397.881C560.528 397.847 560.608 397.806 560.695 397.779C562.445 397.164 563.593 395.314 563.086 393.383C562.618 391.594 560.635 390.27 558.879 390.884C558.732 390.939 558.585 391 558.438 391.055C557.957 389.942 557.009 389.068 555.954 388.816C555.974 388.761 555.987 388.72 555.994 388.686C556.441 386.966 556.729 385.205 557.136 383.471C557.59 381.519 558.498 378.447 560.034 376.59C560.608 376.604 561.203 376.447 561.77 376.071C562.545 375.566 563.025 375.423 563.927 375.273C568.267 374.556 566.424 367.661 562.104 368.378C561.516 368.474 560.962 368.637 560.421 368.835C560.154 368.774 559.887 368.76 559.613 368.767C559.613 368.74 559.62 368.713 559.607 368.678C559.56 368.515 559.373 368.412 559.226 368.378C558.992 368.323 558.732 368.337 558.498 368.412C558.271 368.48 558.017 368.576 557.857 368.754C557.697 368.931 557.543 369.122 557.383 369.3C557.062 369.341 556.755 369.477 556.508 369.682C556.254 369.893 556.027 370.146 555.84 370.419C555.68 370.651 555.54 370.979 555.607 371.266C554.712 372.324 553.931 373.525 553.29 374.515C551.934 376.611 551.139 378.979 550.558 381.409C550.545 381.43 550.525 381.437 550.512 381.457C549.069 383.764 548.789 386.454 548.435 389.109C548.402 389.341 548.382 389.58 548.348 389.812C548.275 390.079 548.201 390.338 548.134 390.604C547.867 391.649 547.787 392.816 547.921 393.963C547.68 394.802 547.507 395.656 547.527 396.509C546.739 399.089 546.532 401.731 547.32 404.318C547.16 404.864 547.113 405.472 547.24 406.1C547.834 409.11 548.675 412.305 549.971 415.083C550.111 415.384 550.271 415.704 550.458 416.039C550.452 416.64 550.619 417.281 551.026 417.937C553.757 422.278 556.074 426.804 560.368 429.63C560.228 429.787 560.181 429.971 560.428 430.121C561.47 430.756 562.338 431.644 563.306 432.388C564.268 433.125 565.343 433.726 566.551 433.876C566.692 433.896 566.845 433.89 566.999 433.869C568.895 435.064 570.878 436.142 572.795 437.057C574.331 437.787 575.94 438.258 577.529 438.811C577.836 439.269 578.357 439.542 578.845 439.746C579.472 440.013 580.073 440.32 580.648 440.688C580.755 440.757 580.901 440.784 581.042 440.791C584.701 443.706 589.135 445.569 593.115 447.945C595.619 449.44 598.13 450.941 600.634 452.443C601.589 454.006 603.351 454.935 604.794 455.952C606.603 457.228 608.393 458.532 610.109 459.938C612.032 461.508 613.815 463.222 615.445 465.079C615.925 465.672 616.393 466.28 616.854 466.888C616.727 467.038 616.693 467.215 616.834 467.379C618.122 468.983 619.184 470.758 619.992 472.663C620.065 472.847 620.232 472.936 620.419 472.97C621.842 475.816 623.444 478.567 624.78 481.448C624.807 481.721 624.867 482.008 624.96 482.301C627.037 488.65 629.434 494.868 632.119 500.957C632.132 500.978 632.139 500.998 632.152 501.026C632.753 504.753 633.848 508.562 635.304 512.064C635.257 513.675 636.105 515.32 637.855 515.688C638.269 515.886 638.749 515.996 639.304 515.996C642.422 516.023 643.33 512.446 642.041 510.357Z" fill="#007BE9"/>
<path d="M291.288 637.496C281.245 641.748 270.26 644.09 258.755 644.09C210.87 644.09 172.053 603.535 172.053 553.512C172.053 503.49 210.87 462.935 258.755 462.935C284.984 462.935 308.496 475.106 324.395 494.336" fill="#B9502D"/>
<path d="M225.268 503.669L287.884 639.309H292.059L331.02 494.184H232.689L228.514 495.132L226.195 497.504L225.268 500.824V503.669Z" fill="white"/>
<path d="M454.015 477.482C453.294 478.533 473.62 490.472 477.894 616.061" stroke="black" stroke-width="0.75" stroke-miterlimit="10" stroke-linecap="round"/>
<path d="M509.104 398.878C514.793 402.298 526.906 400.762 532.782 397.519C532.782 397.519 521.798 405.158 513.19 405.014C512.749 403.363 512.689 401.738 509.104 398.878Z" fill="black" stroke="black" stroke-width="0.75" stroke-miterlimit="10" stroke-linejoin="round"/>
<path d="M330.146 587.726C339.598 587.726 347.261 579.721 347.261 569.848C347.261 559.974 339.598 551.97 330.146 551.97C320.694 551.97 313.031 559.974 313.031 569.848C313.031 579.721 320.694 587.726 330.146 587.726Z" fill="black"/>
<path d="M480.078 316.198C477.787 316.259 472.579 317.993 467.557 314.498C457.02 307.167 451.878 294.115 456.766 281.91C456.866 281.664 456.967 281.418 457.067 281.179C460.406 273.479 467.223 268.059 475.13 266.325C487.55 263.609 497.767 262.175 511.002 249.055C514.681 245.417 519.456 243.123 524.524 242.98C532.837 242.754 541.839 247.833 544.784 265.336" stroke="black" stroke-width="0.75" stroke-miterlimit="10" stroke-linecap="round"/>
<path d="M473.494 316.635C473.494 316.635 476.332 316.976 480.085 316.198C481.374 315.932 482.776 315.536 484.212 314.949C489.601 312.73 495.423 307.808 497.507 297.016C497.961 294.647 499.343 292.572 501.3 291.275C507.156 287.391 516.484 284.988 532.791 300.545C538.788 305.863 554.006 308.634 560.977 336.492C561.418 338.24 563.348 339.052 564.79 338.069C567.374 336.322 570.96 334.977 572.342 339.523C572.99 341.66 572.776 343.988 571.908 346.042C567 357.647 565.157 365.388 559.635 367.477" stroke="black" stroke-width="0.75" stroke-miterlimit="10" stroke-linecap="round" stroke-linejoin="bevel"/>
<path d="M757.003 613.399C778.216 613.399 795.413 595.435 795.413 573.275C795.413 551.114 778.216 533.15 757.003 533.15C735.79 533.15 718.594 551.114 718.594 573.275C718.594 595.435 735.79 613.399 757.003 613.399Z" fill="#FED958"/>
<path d="M626.157 642.315C626.851 642.533 627.539 642.738 628.193 642.923C588.716 632.007 510.247 644.848 510.247 644.848L509.526 642.97C508.705 640.834 506.728 639.434 504.525 639.434H498.809C529.425 628.389 601.276 636.861 623.82 641.687C624.614 641.858 625.389 642.069 626.157 642.315Z" fill="black"/>
<path d="M644.988 587.446C643.172 588.483 643.76 588.204 642.357 589.077" stroke="black" stroke-width="0.75" stroke-miterlimit="10" stroke-linecap="round"/>
<path d="M604.927 456.129C604.266 455.085 603.131 454.696 602.143 454.047C602.082 454.006 602.009 453.993 601.942 453.972C601.628 453.713 601.301 453.467 600.954 453.255C600.593 453.037 600.059 453.16 599.692 453.31C599.578 453.358 598.804 453.761 599.138 453.965C600.547 454.832 601.588 456.232 603.171 456.812C603.505 456.935 603.992 456.826 604.313 456.689C604.453 456.628 604.593 456.566 604.713 456.471C604.767 456.443 605.001 456.245 604.927 456.129Z" fill="white"/>
<path d="M575.198 438.217C573.629 437.371 572.087 436.476 570.564 435.548C570.31 435.391 569.99 435.371 569.689 435.439C569.556 435.377 569.362 435.391 569.229 435.405C568.982 435.432 568.708 435.493 568.474 435.582C568.294 435.65 568.067 435.726 567.927 435.869C567.866 435.93 567.766 436.04 567.886 436.108C568.801 436.606 569.616 437.289 570.611 437.603C571.633 438.203 572.661 438.797 573.703 439.357C574.13 439.589 574.704 439.555 575.092 439.234C575.365 439.002 575.646 438.456 575.198 438.217Z" fill="white"/>
<path d="M547.633 397.335C547.647 397.178 547.6 397.11 547.453 397.048C547.273 396.973 547.006 396.987 546.825 397.021C546.572 397.062 546.311 397.137 546.091 397.267C545.971 397.342 545.724 397.471 545.71 397.635C545.69 397.949 545.637 398.256 545.597 398.564C545.49 398.605 545.39 398.652 545.296 398.714C545.203 398.782 545.056 398.864 545.069 399C545.176 400.284 545.169 401.581 545.049 402.864C545.036 402.98 545.356 402.994 545.39 402.994C545.617 403.007 545.877 402.953 546.098 402.891C546.325 402.823 546.565 402.755 546.759 402.618C546.866 402.543 546.972 402.475 546.986 402.332C547.039 401.751 547.066 401.171 547.073 400.591C547.086 400.564 547.106 400.543 547.113 400.516C547.38 399.471 547.553 398.407 547.633 397.335Z" fill="white"/>
<path d="M475.529 571.424L475.342 571.452C475.456 571.179 475.523 570.885 475.536 570.599C475.563 570.203 475.463 569.848 475.296 569.52C475.282 567.574 475.089 565.465 474.508 563.636C474.701 563.329 474.822 562.96 474.828 562.557C474.842 561.806 474.595 561.021 474.388 560.277C474.414 559.977 474.381 559.69 474.294 559.403C474.321 558.277 474.094 557.021 473.94 555.908C473.773 554.673 473.6 553.437 473.346 552.222C473.373 552.045 473.359 551.867 473.333 551.697C473.419 551.451 473.459 551.157 473.433 550.823C473.313 549.505 473.085 548.202 472.959 546.884C472.825 545.512 472.638 544.113 472.177 542.816C472.177 542.782 472.184 542.754 472.184 542.72C472.184 542.577 472.164 542.433 472.131 542.297C472.271 541.949 472.318 541.546 472.224 541.096C471.797 538.952 471.51 536.87 471.296 534.679C471.162 533.239 470.982 531.655 470.428 530.276C470.408 528.187 470.061 526.146 469.58 524.119C469.306 522.979 469.146 521.497 468.792 520.207C468.805 520.023 468.805 519.832 468.765 519.62C468.211 516.542 467.563 513.463 466.762 510.446C466.735 510.336 466.702 510.241 466.668 510.139C466.675 509.818 466.602 509.476 466.421 509.128C465.874 508.084 465.627 506.589 465.346 505.422C464.972 503.872 464.692 502.288 464.391 500.725C464.291 500.193 464.031 499.831 463.71 499.592C463.309 497.906 462.682 496.281 462.214 494.616C462.141 494.356 462.027 494.145 461.901 493.96C460.845 490.22 459.477 486.547 457.373 483.332C457.366 483.318 457.353 483.305 457.34 483.291C457.313 483.195 457.286 483.093 457.26 482.997C457.173 482.601 456.939 482.253 456.632 481.994C456.592 481.912 456.532 481.851 456.478 481.782C456.458 481.694 456.425 481.612 456.378 481.53C456.044 480.97 455.704 480.417 455.356 479.871C455.063 479.407 454.468 479.216 453.988 479.502C453.974 479.509 453.961 479.523 453.941 479.536C453.747 479.618 453.574 479.741 453.467 479.939C453.347 480.158 453.246 480.397 453.166 480.635C453.139 480.724 453.119 480.813 453.099 480.902C453.099 480.915 453.093 480.936 453.086 480.95C452.926 481.229 452.886 481.584 452.999 481.885C452.652 482.246 452.432 482.724 452.432 483.284V485.591C452.432 485.926 452.525 486.247 452.685 486.54C452.472 488.711 452.118 490.882 451.924 493.025C451.644 496.165 451.41 499.312 451.163 502.452C451.116 502.555 451.069 502.664 451.036 502.78C450.408 504.91 450.348 507.142 450.308 509.367C450.302 509.394 450.288 509.415 450.281 509.435C449.901 510.691 449.767 512.023 449.727 513.36C449.62 513.613 449.547 513.879 449.547 514.166C449.574 514.35 449.594 514.528 449.62 514.712C449.647 514.801 449.687 514.876 449.721 514.951C449.727 515.245 449.727 515.538 449.734 515.832C449.787 518.289 453.28 518.46 453.7 516.323C453.774 516.385 453.847 516.439 453.921 516.501C454.235 516.685 454.569 516.78 454.929 516.78H455.003C455.276 516.794 455.537 516.733 455.777 516.603C456.024 516.521 456.238 516.378 456.425 516.18C456.619 515.995 456.759 515.777 456.839 515.518C456.966 515.272 457.019 515.012 457.013 514.726C456.986 514.541 456.966 514.364 456.939 514.18C456.846 513.832 456.672 513.531 456.425 513.279C456.291 513.169 456.158 513.067 456.018 512.958C455.871 512.869 455.71 512.801 455.55 512.76C455.911 512.637 456.265 512.48 456.578 512.316C456.712 512.248 456.846 512.173 456.979 512.098C457.233 512.78 457.861 513.285 458.562 513.442C458.548 513.538 458.535 513.64 458.535 513.743C458.562 513.927 458.582 514.105 458.608 514.289C458.702 514.637 458.876 514.937 459.123 515.19C459.256 515.299 459.39 515.402 459.53 515.511C459.844 515.695 460.178 515.791 460.538 515.791H460.652C460.699 515.791 460.739 515.784 460.785 515.777C460.799 516.501 460.772 517.238 460.819 517.989C460.939 519.743 461.239 521.484 461.527 523.211C461.54 523.279 461.56 523.327 461.573 523.388C461.507 523.477 461.446 523.545 461.426 523.586C461.406 523.62 461.386 523.654 461.366 523.695C460.879 524.009 460.538 524.556 460.572 525.347C460.585 525.689 460.592 526.03 460.598 526.378C460.405 526.535 460.224 526.719 460.118 526.924C460.098 526.958 460.091 526.999 460.071 527.033C460.004 527.088 459.931 527.136 459.871 527.197C459.523 527.552 459.263 528.132 459.283 528.644C459.303 529.177 459.477 529.723 459.871 530.092C460.078 530.29 460.351 530.474 460.645 530.583C460.645 530.658 460.645 530.733 460.645 530.802C460.625 532.119 461.613 532.774 462.615 532.781C462.628 535.252 462.695 537.723 462.582 540.194C462.555 540.802 462.755 541.266 463.069 541.594C462.929 541.751 462.795 541.908 462.688 542.065C462.128 542.891 462.101 543.812 462.528 544.707C462.715 545.096 462.942 545.341 463.189 545.526C462.996 545.963 462.909 546.379 462.889 546.884C462.842 548.174 464.311 549.212 465.466 548.898C465.66 548.993 465.854 549.055 466.061 549.089C466.001 549.294 465.94 549.505 465.88 549.71C465.293 551.847 467.917 552.939 469.186 551.738C469.259 551.997 469.333 552.263 469.413 552.516C469.426 552.55 469.439 552.577 469.453 552.605C469.426 552.823 469.433 553.055 469.48 553.308C469.747 554.584 470.047 556.018 470.201 557.41C470 557.745 469.867 558.168 469.88 558.516C469.887 558.7 469.92 558.864 469.967 559.028C470.014 559.308 470.067 559.574 470.174 559.847C470.207 559.929 470.241 560.011 470.274 560.093C470.227 560.209 470.174 560.318 470.147 560.441C469.787 560.625 469.493 560.885 469.259 561.192C468.939 561.54 468.685 561.95 468.611 562.407C468.511 563.015 468.398 563.643 468.411 564.264C468.431 564.933 468.551 565.609 468.658 566.271C468.658 566.278 468.658 566.278 468.658 566.284C467.463 566.346 466.268 566.359 465.066 566.298C463.443 566.216 462.061 567.772 462.061 569.37C462.061 571.104 463.436 572.36 465.066 572.442C467.042 572.544 469.012 572.476 470.975 572.244C471.055 572.237 471.129 572.216 471.202 572.203C471.136 573.909 470.074 611.201 447.784 629.256C446.642 633.769 444.238 639.489 444.238 639.489L446.422 639.414C446.422 639.414 456.098 618.778 478.441 615.699C477.706 605.801 475.529 571.424 475.529 571.424Z" fill="black"/>
<path d="M589.202 592.647C589.235 592.593 589.255 592.531 589.235 592.47C589.195 592.32 588.995 592.286 588.874 592.258C588.808 592.245 588.748 592.231 588.681 592.217C588.674 592.217 588.667 592.211 588.654 592.211C588.427 592.026 588.193 591.842 587.98 591.637C587.833 591.501 587.686 591.357 587.546 591.207C587.472 591.132 587.405 591.05 587.339 590.975C587.298 590.934 587.258 590.893 587.225 590.845C587.272 590.784 587.305 590.722 587.278 590.661C586.965 589.978 586.511 589.364 585.963 588.866C586.09 588.709 586.083 588.558 585.809 588.538L584.681 577.657C583.546 569.936 576.581 515.395 595.171 480.922C595.171 480.922 565.55 515.996 580.447 587.398C580.995 590.033 583.145 592.716 586.143 592.682C586.223 592.736 586.304 592.798 586.39 592.839C586.791 593.03 587.232 593.118 587.659 593.207C587.873 593.255 588.167 593.193 588.374 593.139C588.547 593.091 588.748 593.009 588.908 592.9C589.081 592.975 589.248 593.05 589.422 593.118C589.469 593.139 589.535 593.132 589.576 593.125C589.636 593.118 589.702 593.098 589.763 593.064C589.816 593.03 589.916 592.948 589.816 592.907C589.616 592.825 589.409 592.736 589.202 592.647Z" fill="black"/>
<path d="M544.376 265.445C544.376 265.445 543.741 288.388 561.844 289.842C563.467 290.102 565.076 290.361 566.699 290.62C573.443 292.436 583.026 297.433 578.592 311.98C578.271 313.488 577.957 314.99 577.637 316.492C577.103 320.676 576.522 323.1 579.4 326.697C582.752 330.895 587.239 342.548 581.423 351.388C581.423 351.388 569.403 372.781 557.858 369.266" stroke="black" stroke-width="2" stroke-miterlimit="10" stroke-linecap="round" stroke-linejoin="round"/>
<path d="M471.45 267.582C471.383 267.609 471.39 267.609 471.45 267.582C471.47 267.575 471.497 267.561 471.538 267.541C471.511 267.561 471.484 267.575 471.45 267.582Z" fill="black"/>
<path d="M583.66 335.735C583.012 333.155 582.525 330.513 580.315 328.963C579.747 327.639 579.039 326.362 578.171 325.134C578.098 325.024 578.031 324.922 577.951 324.813L577.944 324.82C577.864 324.71 577.79 324.608 577.71 324.499C577.637 324.192 577.57 323.878 577.517 323.57C577.724 321.987 577.597 320.335 577.136 318.676C577.149 318.362 577.163 318.048 577.19 317.734C577.363 317.304 577.523 316.86 577.644 316.396C578.338 313.672 579.146 310.976 579.313 308.136C579.373 307.078 579.313 306.027 579.173 304.983C579.219 304.532 579.246 304.082 579.226 303.617C579.053 299.556 576.909 295.931 573.67 294.122C572.308 292.846 570.619 291.938 568.709 291.596C565.464 290.06 561.824 289.214 558.305 289.337C557.29 288.634 556.255 287.951 555.187 287.323C553.945 286.593 552.683 285.903 551.441 285.18C551.18 285.03 550.927 284.866 550.666 284.709C549.718 282.524 548.429 280.531 546.766 278.838C546.7 278.695 546.64 278.551 546.573 278.415C546.379 277.664 546.119 276.94 545.791 276.258C545.665 275.78 545.518 275.309 545.337 274.858C545.478 274.183 545.538 273.486 545.511 272.763C545.564 271.288 545.271 269.909 544.63 268.633C544.61 268.565 544.583 268.503 544.556 268.435C544.71 267.691 544.783 266.92 544.75 266.134C544.696 264.933 544.469 263.773 544.089 262.68C544.095 262.646 544.095 262.612 544.089 262.578C543.969 262.08 543.828 261.581 543.661 261.09C543.655 261.069 543.641 261.049 543.628 261.035C543.448 259.766 543.087 258.544 542.553 257.438C542.706 257.267 542.8 257.056 542.72 256.83C542.413 255.97 541.972 255.165 541.565 254.352C541.151 253.52 540.75 252.68 540.282 251.874C539.414 250.386 538.286 249.076 536.99 247.963C536.93 247.908 536.857 247.874 536.783 247.847C536.63 247.717 536.476 247.588 536.323 247.465C536.243 247.396 536.162 247.321 536.082 247.253C536.056 247.205 536.036 247.151 536.009 247.103C535.989 247.035 535.942 246.98 535.882 246.96C535.815 246.905 535.735 246.878 535.648 246.871C535.648 246.871 535.648 246.871 535.642 246.871C535.441 246.693 535.248 246.509 535.034 246.352C534.587 246.011 534.086 245.724 533.592 245.451C533.137 245.198 532.663 245 532.283 244.632C532.176 244.523 531.909 244.529 531.782 244.529H531.775C530.607 243.901 529.305 243.506 527.896 243.403C527.355 243.185 526.807 242.953 526.219 242.898C525.618 242.843 525.018 242.898 524.417 242.939C523.822 242.98 523.228 243.021 522.634 243.062C522.346 243.082 521.999 243.219 521.779 243.451C520.958 243.553 520.15 243.779 519.375 244.093C519.068 244.058 518.701 244.168 518.487 244.243C516.443 244.987 514.58 246.12 512.918 247.547C512.11 248.236 511.355 248.994 510.614 249.758C510.273 249.772 509.946 249.936 509.692 250.195C509.272 250.625 508.851 251.049 508.437 251.479C508.23 251.69 508.016 251.909 507.809 252.12C507.703 252.229 507.596 252.339 507.489 252.441C507.476 252.455 507.449 252.475 507.435 252.496C507.382 252.55 507.322 252.605 507.262 252.653C506.875 253.001 506.434 253.281 506.046 253.636C505.826 253.834 505.632 254.045 505.439 254.27C505.405 254.305 505.372 254.346 505.345 254.38C505.339 254.387 505.345 254.38 505.345 254.387C505.339 254.393 505.345 254.387 505.339 254.393C505.058 254.468 504.758 254.687 504.638 254.974C504.277 255.213 503.93 255.479 503.596 255.759C503.329 255.82 503.075 255.929 502.901 256.079C502.334 256.571 501.766 257.083 501.118 257.458C500.477 257.827 499.816 258.093 499.222 258.551C498.688 258.96 498.16 259.315 497.553 259.595C496.818 259.936 496.057 260.23 495.309 260.537C495.276 260.551 495.229 260.571 495.175 260.598C495.122 260.605 495.069 260.619 495.028 260.633C493.82 261.001 492.671 261.52 491.529 262.052C491.022 262.285 490.474 262.585 489.974 262.708C489.974 262.708 489.76 262.756 489.767 262.756C489.58 262.79 489.399 262.817 489.212 262.858C488.872 262.926 488.545 263.035 488.237 263.192C488.177 263.22 488.117 263.261 488.057 263.302C486.655 263.438 485.293 263.902 484.051 264.619C483.55 264.735 483.042 264.851 482.541 264.967C482.515 264.974 482.488 264.981 482.455 264.988C481.727 265.076 481.012 265.206 480.291 265.356C478.842 265.657 477.386 265.964 475.951 266.332C475.85 266.36 475.543 266.442 475.316 266.571C475.249 266.585 475.183 266.606 475.109 266.619C474.922 266.571 474.682 266.592 474.568 266.612C474.014 266.708 473.467 266.838 472.932 267.015C472.639 267.111 472.345 267.213 472.058 267.336C471.951 267.384 471.837 267.431 471.73 267.479C471.697 267.493 471.67 267.507 471.637 267.52C471.543 267.568 471.49 267.588 471.457 267.609C471.483 267.602 471.523 267.588 471.57 267.568C471.53 267.582 471.49 267.595 471.45 267.609C471.41 267.629 471.41 267.629 471.45 267.609C471.37 267.636 471.29 267.664 471.21 267.705C468.639 268.107 466.221 269.343 464.585 271.391C462.475 272.79 461.026 274.333 459.611 276.504C459.177 277.166 458.843 277.889 458.549 278.633C457 280.524 455.978 282.811 455.878 285.337C455.751 285.412 455.631 285.494 455.564 285.63C455.437 285.869 455.39 286.108 455.35 286.374C455.33 286.497 455.29 286.613 455.243 286.729C455.183 286.873 455.15 287.002 455.15 287.166C455.15 287.255 455.277 287.303 455.377 287.323C455.377 287.33 455.37 287.337 455.37 287.35C455.25 288.299 455.123 289.248 455.003 290.204C455.003 290.75 455.056 291.282 455.137 291.808C455.063 291.849 454.99 291.883 454.93 291.938C454.889 291.985 454.843 292.033 454.803 292.074C454.736 292.156 454.716 292.252 454.736 292.354C454.856 292.641 454.956 292.934 455.03 293.235C455.05 293.296 455.09 293.337 455.143 293.371C455.076 293.897 455.043 294.429 455.063 294.969C455.157 297.146 455.818 299.187 456.906 300.901C456.833 300.989 456.766 301.098 456.819 301.187C457.514 302.395 457.794 303.788 458.409 305.03C458.529 305.269 458.809 305.317 459.083 305.297C458.996 305.392 458.963 305.501 459.05 305.624C459.944 306.921 460.899 308.17 461.928 309.365C462.449 309.966 462.983 310.553 463.524 311.14C464.011 311.666 464.458 312.205 465.133 312.485C465.16 312.498 465.193 312.491 465.22 312.498C466.241 313.611 467.463 314.471 468.819 315.038C468.852 315.085 468.899 315.126 468.959 315.147C469.066 315.215 469.166 315.283 469.286 315.331C469.36 315.359 469.433 315.386 469.513 315.399C469.527 315.461 469.553 315.516 469.594 315.57C469.66 315.638 469.727 315.713 469.807 315.768C469.887 315.83 469.994 315.877 470.081 315.918C470.215 315.98 470.361 316.007 470.502 316.041C470.662 316.075 470.836 316.068 470.989 316.068C471.083 316.068 471.169 316.062 471.263 316.055C471.283 316.055 471.296 316.041 471.316 316.041C472.265 316.355 473.273 316.546 474.341 316.546C474.762 316.546 475.189 316.512 475.603 316.451C475.73 316.519 475.884 316.533 476.024 316.539C476.906 316.58 477.794 316.458 478.642 316.205C479.637 316.184 480.618 316 481.553 315.673C481.607 315.686 481.66 315.693 481.713 315.7C482.655 315.748 483.53 315.406 484.304 314.881C484.471 314.771 484.625 314.649 484.785 314.533C485.252 314.369 485.713 314.184 486.161 313.959C486.348 313.864 486.561 313.727 486.661 313.529C488.057 312.867 489.319 311.904 490.341 310.71C490.521 310.601 490.701 310.478 490.855 310.328C491.162 310.027 491.463 309.72 491.763 309.413C491.837 309.338 491.937 309.229 491.963 309.112C494.1 307.392 495.636 304.873 495.917 302.054C497.192 300.279 497.953 298.122 497.86 295.822C497.853 295.699 497.84 295.576 497.833 295.453C497.98 295.16 498.12 294.859 498.247 294.559C498.267 294.525 498.287 294.484 498.307 294.45C498.441 294.197 498.581 293.945 498.721 293.692C499.409 293.078 500.103 292.463 500.811 291.869C501.065 291.651 501.299 291.419 501.526 291.166C502.347 290.811 503.128 290.334 503.85 289.781C504.137 289.76 504.431 289.651 504.644 289.508C505.185 289.153 505.759 288.934 506.367 288.757C506.414 288.743 506.467 288.736 506.514 288.729C506.774 288.839 507.135 288.798 507.355 288.757C508.197 288.6 509.265 288.47 510.207 288.409C510.928 288.361 511.642 288.34 512.357 288.374C512.39 288.381 512.43 288.381 512.464 288.388C512.47 288.402 512.477 288.409 512.49 288.422C512.624 288.511 512.838 288.49 512.978 288.477C513.051 288.47 513.131 288.463 513.205 288.456C513.258 288.456 513.312 288.463 513.365 288.463C513.399 288.504 513.445 288.538 513.499 288.572C514.053 288.9 514.647 289.023 515.268 289.173C515.849 289.316 516.43 289.473 517.011 289.637C517.412 289.753 517.806 289.876 518.206 289.992C518.22 290.006 518.22 290.02 518.24 290.033C518.567 290.272 518.914 290.436 519.295 290.572C519.549 290.661 519.802 290.75 520.056 290.832C522.18 292.142 524.29 293.48 526.393 294.825C526.346 294.928 526.333 295.037 526.386 295.153C526.567 295.549 526.854 295.767 527.268 295.876C527.588 295.958 527.775 296.033 528.042 296.259C528.583 296.723 529.078 297.201 529.658 297.617C529.946 297.822 530.239 298.027 530.5 298.266C530.78 298.518 531.007 298.819 531.281 299.071C531.688 299.44 532.149 299.754 532.61 300.061C535.548 302.962 539.441 305.14 543.167 307.126C543.728 307.679 544.342 308.177 545.03 308.601C545.07 308.621 545.117 308.641 545.157 308.669C545.19 308.689 545.231 308.71 545.264 308.73C545.244 308.805 545.251 308.88 545.324 308.935C545.598 309.147 545.838 309.399 546.079 309.659C546.306 309.904 546.533 310.15 546.813 310.334C546.92 310.403 547.027 310.437 547.14 310.45C548.189 311.59 549.224 312.758 550.112 314.027C550.212 314.171 550.439 314.198 550.706 314.171C550.953 314.601 551.28 314.997 551.574 315.399C551.942 315.905 552.295 316.417 552.643 316.942C553.324 317.959 553.965 319.004 554.573 320.069C554.606 320.13 554.666 320.171 554.733 320.198C554.733 320.205 554.733 320.212 554.739 320.219C555.314 321.12 555.835 322.014 556.249 322.997C556.449 323.482 556.716 323.919 556.97 324.376C557.23 324.84 557.424 325.332 557.557 325.85C557.571 325.898 557.597 325.932 557.638 325.966C557.771 326.82 558.198 327.598 558.392 328.444C558.419 328.56 558.626 328.588 558.719 328.595C559.447 331.093 560.175 333.598 560.896 336.097C560.996 336.438 561.143 336.725 561.317 336.964C561.344 337.066 561.39 337.168 561.437 337.271C561.504 337.421 561.584 337.585 561.691 337.708C561.945 337.988 562.352 338.158 562.699 338.267C563.641 338.547 564.556 338.117 565.343 337.619C565.39 337.592 565.437 337.551 565.484 337.503C566.999 336.909 568.589 336.656 570.198 336.581C570.205 336.595 570.211 336.602 570.218 336.615C570.252 336.663 570.285 336.711 570.332 336.752C570.352 336.772 570.378 336.786 570.398 336.807C570.412 336.813 570.425 336.82 570.432 336.827C570.438 336.827 570.445 336.834 570.452 336.834C570.499 336.854 570.539 336.875 570.585 336.888C570.639 336.895 570.699 336.902 570.752 336.909C570.766 336.909 570.779 336.909 570.792 336.909C572.315 338.964 573.029 340.957 572.622 343.783C572.208 346.643 570.719 349.435 569.604 352.05C569.53 352.213 569.484 352.391 569.45 352.562C569.39 352.637 569.337 352.719 569.297 352.821C569.05 353.49 568.782 354.152 568.502 354.814C568.021 355.162 567.634 355.681 567.414 356.309C567.247 356.78 567.16 357.258 567.086 357.736C566.752 358.343 566.405 358.944 566.111 359.572C565.744 360.357 565.45 361.176 565.156 361.989C565.11 362.125 565.15 362.221 565.223 362.303C565.177 362.419 565.136 362.541 565.103 362.658C564.509 362.999 564.135 363.586 563.968 364.241C563.727 364.501 563.514 364.78 563.32 365.067C562.786 365.238 562.439 365.654 562.285 366.159C562.252 366.159 562.225 366.153 562.198 366.153C561.31 366.153 560.789 366.733 560.616 367.429C560.095 367.559 559.567 367.675 559.033 367.75C558.592 367.811 558.225 368.098 558.192 368.583C558.132 368.617 558.072 368.644 558.025 368.685C557.784 368.897 557.711 369.149 558.145 369.149C558.205 369.149 558.272 369.142 558.332 369.142C558.486 369.395 558.746 369.579 559.033 369.538C559.688 369.45 560.329 369.334 560.97 369.183C561.243 369.511 561.657 369.736 562.205 369.736C563.046 369.736 563.567 369.211 563.761 368.569C563.794 368.569 563.821 368.576 563.848 368.576C564.429 368.576 564.856 368.323 565.13 367.955C565.163 367.941 565.197 367.927 565.23 367.914C565.23 367.914 565.237 367.914 565.243 367.907C565.477 367.839 565.697 367.757 565.918 367.661C566.051 367.682 566.192 367.702 566.338 367.702C567.707 367.702 568.502 366.774 568.736 365.695C569.156 365.497 569.537 365.156 569.837 364.644C570.652 364.671 571.494 364.337 572.081 363.463C572.729 362.501 573.69 361.818 574.432 360.944C575.213 360.023 575.794 358.985 576.455 357.975C577.376 356.555 578.432 355.367 579.213 353.94C579.694 353.613 580.021 353.128 580.188 352.568C580.375 352.418 580.555 352.261 580.735 352.09C582.825 350.09 583.767 347.49 584.087 344.616C584.415 341.435 584.435 338.8 583.66 335.735Z" fill="black"/>
<path d="M292.164 648.776C291.612 648.776 291.164 649.224 291.164 649.776C291.164 650.328 291.612 650.776 292.164 650.776V648.776ZM512.144 650.776C512.696 650.776 513.144 650.328 513.144 649.776C513.144 649.224 512.696 648.776 512.144 648.776V650.776ZM220.053 659.227C219.5 659.227 219.053 659.675 219.053 660.227C219.053 660.779 219.5 661.227 220.053 661.227V659.227ZM771.087 661.227C771.639 661.227 772.087 660.779 772.087 660.227C772.087 659.675 771.639 659.227 771.087 659.227V661.227ZM380.428 498.534L381.348 498.141L381.347 498.139L380.428 498.534ZM440.68 639.434V640.434H442.195L441.6 639.041L440.68 639.434ZM287.81 639.434L286.903 639.854L287.171 640.434H287.81V639.434ZM225.548 504.944L226.456 504.524L226.456 504.523L225.548 504.944ZM510.228 434.694C509.858 434.284 509.226 434.251 508.816 434.621C508.406 434.991 508.374 435.624 508.744 436.034L510.228 434.694ZM562.626 432.186C563.02 431.799 563.026 431.166 562.639 430.772C562.252 430.378 561.618 430.372 561.224 430.759L562.626 432.186ZM611.7 459.671C611.293 459.299 610.66 459.327 610.287 459.735C609.915 460.142 609.943 460.775 610.351 461.147L611.7 459.671ZM644.567 549.26L645.55 549.076L645.546 549.055L645.541 549.035L644.567 549.26ZM454.292 637.954C453.92 638.361 453.948 638.994 454.355 639.367C454.763 639.739 455.395 639.711 455.768 639.304L454.292 637.954ZM465.979 630.148C466.479 629.914 466.694 629.318 466.46 628.818C466.225 628.318 465.63 628.103 465.13 628.337L465.979 630.148ZM467.351 638.25C466.961 638.64 466.961 639.273 467.351 639.664C467.742 640.054 468.375 640.054 468.766 639.663L467.351 638.25ZM477.12 632.024C477.672 632.024 478.12 631.577 478.12 631.024C478.12 630.472 477.672 630.024 477.12 630.024V632.024ZM456.546 572.401L457.544 572.336L457.486 571.443L456.593 571.402L456.546 572.401ZM455.878 572.285L455.639 573.256L455.647 573.257L455.878 572.285ZM448.386 564.428L449.361 564.206L449.361 564.205L448.386 564.428ZM446.783 541.375L447.783 541.398L447.783 541.398L446.783 541.375ZM448.393 521.832L449.384 521.968L449.384 521.966L448.393 521.832ZM452.473 485.578L453.473 485.589V485.589L452.473 485.578ZM462.75 465.215L463.404 465.971L463.405 465.971L462.75 465.215ZM504.792 438.804L504.35 437.907L504.35 437.907L504.792 438.804ZM513.546 425.145L512.547 425.105V425.105L513.546 425.145ZM513.145 405.793L512.147 405.853L512.147 405.855L513.145 405.793ZM510.034 399.622L509.403 400.398L509.404 400.398L510.034 399.622ZM486.041 341.899L486.996 342.196V342.196L486.041 341.899ZM487.39 334.492L486.391 334.458L486.39 334.458L487.39 334.492ZM487.25 329.871L488.245 329.776L488.245 329.772L487.25 329.871ZM486.308 321.093L485.317 321.224L485.318 321.23L486.308 321.093ZM485.874 317.925L484.878 318.009L484.878 318.013L485.874 317.925ZM496.231 639.434V640.434H497.231V639.434H496.231ZM287.79 639.434V638.434H286.281L286.869 639.824L287.79 639.434ZM295.122 656.752L296.043 656.364L296.043 656.362L295.122 656.752ZM300.044 660.104L300.044 659.104H300.044V660.104ZM508.191 660.22L508.19 661.22H508.191V660.22ZM513.192 652.493L514.125 652.134L514.125 652.134L513.192 652.493ZM509.526 642.963L508.593 643.322L508.593 643.323L509.526 642.963ZM496.231 639.427V638.427H495.231V639.427H496.231ZM643.156 589.04C643.154 588.487 642.705 588.041 642.153 588.043C641.601 588.045 641.154 588.494 641.156 589.046L643.156 589.04ZM648.433 631.837L649.416 631.651L649.416 631.651L648.433 631.837ZM637.148 644.786L637.263 643.793L637.259 643.792L637.148 644.786ZM628.501 643.018L628.769 642.055L628.764 642.053L628.501 643.018ZM628.194 642.929L627.922 643.892L627.931 643.894L628.194 642.929ZM626.157 642.322L625.852 643.274L625.857 643.276L626.157 642.322ZM623.826 641.694L624.038 640.716L624.036 640.716L623.826 641.694ZM498.815 639.441V640.441H498.99L499.155 640.382L498.815 639.441ZM496.231 639.441L496.239 638.441H496.233L496.231 639.441ZM446.323 638.984L445.376 638.662L444.933 639.965L446.309 639.984L446.323 638.984ZM469.668 617.979L469.332 617.037L469.332 617.037L469.668 617.979ZM487.17 616.129L487.296 615.137H487.296L487.17 616.129ZM508.945 614.416L509.255 615.367L509.255 615.367L508.945 614.416ZM615.422 610.729C615.946 610.905 616.513 610.622 616.688 610.098C616.863 609.575 616.581 609.008 616.057 608.833L615.422 610.729ZM651.171 577.008L650.207 577.276L650.208 577.278L651.171 577.008ZM642.898 588.736L643.297 589.653L643.408 589.604L643.505 589.53L642.898 588.736ZM510.092 643.861C509.547 643.95 509.178 644.464 509.267 645.009C509.356 645.554 509.87 645.924 510.415 645.834L510.092 643.861ZM628.2 642.923L627.934 643.886L627.966 643.895L628 643.902L628.2 642.923ZM628.507 643.004H629.507V642.24L628.77 642.04L628.507 643.004ZM628.507 643.011H627.507V643.185L627.566 643.348L628.507 643.011ZM633.723 660.564C633.908 661.084 634.481 661.355 635.001 661.169C635.521 660.983 635.792 660.41 635.606 659.89L633.723 660.564ZM613.022 462.764C613.504 462.494 613.677 461.885 613.408 461.403C613.138 460.921 612.529 460.748 612.047 461.018L613.022 462.764ZM585.41 586.927L584.428 587.115L584.428 587.115L585.41 586.927ZM592.651 594.493C593.203 594.469 593.631 594.003 593.608 593.451C593.584 592.899 593.118 592.471 592.566 592.495L592.651 594.493ZM598.627 593.7C598.492 593.164 597.948 592.84 597.412 592.975C596.877 593.11 596.552 593.653 596.687 594.189L598.627 593.7ZM599.612 605.793C599.747 606.329 600.291 606.653 600.826 606.518C601.362 606.384 601.686 605.84 601.551 605.304L599.612 605.793ZM583.283 588.876C582.938 588.445 582.309 588.374 581.877 588.718C581.446 589.062 581.375 589.692 581.719 590.123L583.283 588.876ZM560.253 368.302C560.777 368.126 561.059 367.559 560.883 367.036C560.708 366.512 560.141 366.23 559.617 366.406L560.253 368.302ZM547.134 403.185L546.135 403.156C546.134 403.183 546.134 403.21 546.136 403.237L547.134 403.185ZM547.214 404.734L546.216 404.786C546.217 404.814 546.22 404.843 546.224 404.871L547.214 404.734ZM568.456 434.804L568.828 433.876L568.827 433.876L568.456 434.804ZM573.791 437.152L573.35 438.05L573.35 438.05L573.791 437.152ZM612.686 463.53C613.014 463.974 613.64 464.067 614.084 463.739C614.528 463.41 614.622 462.784 614.293 462.34L612.686 463.53ZM787.661 196.302L786.735 196.679V196.679L787.661 196.302ZM740.758 317.652L741.163 318.566L741.163 318.566L740.758 317.652ZM647.832 278.449L648.759 278.072L648.759 278.072L647.832 278.449ZM677.855 200.787L677.449 199.873L677.449 199.873L677.855 200.787ZM737.325 225.873L738.252 225.497V225.497L737.325 225.873ZM718.114 275.575L717.709 274.661L717.708 274.661L718.114 275.575ZM680.052 259.52L680.978 259.143L680.978 259.143L680.052 259.52ZM692.345 227.71L692.751 228.624L692.751 228.624L692.345 227.71ZM716.705 237.983L717.631 237.607L717.631 237.606L716.705 237.983ZM586.001 592.615L585.778 593.59L586.001 592.615ZM292.164 650.776H512.144V648.776H292.164V650.776ZM220.053 661.227H771.087V659.227H220.053V661.227ZM373.784 495.035C376.236 495.035 378.484 496.54 379.509 498.928L381.347 498.139C380.022 495.053 377.075 493.035 373.784 493.035V495.035ZM379.509 498.927L439.761 639.827L441.6 639.041L381.348 498.141L379.509 498.927ZM440.68 638.434H287.81V640.434H440.68V638.434ZM226.456 504.523C224.397 500.079 227.535 495.035 232.099 495.035V493.035C225.939 493.035 222.026 499.719 224.641 505.364L226.456 504.523ZM509.486 435.364C508.744 436.034 508.744 436.034 508.745 436.035C508.745 436.035 508.746 436.036 508.746 436.037C508.747 436.038 508.749 436.04 508.751 436.042C508.755 436.046 508.76 436.052 508.767 436.059C508.78 436.074 508.799 436.094 508.823 436.12C508.872 436.172 508.942 436.246 509.035 436.34C509.219 436.528 509.489 436.796 509.842 437.124C510.546 437.779 511.581 438.677 512.916 439.658C515.582 441.619 519.463 443.93 524.309 445.306C534.083 448.08 547.559 446.986 562.626 432.186L561.224 430.759C546.63 445.094 533.886 445.945 524.855 443.382C520.3 442.088 516.633 439.909 514.101 438.047C512.837 437.118 511.861 436.271 511.204 435.659C510.876 435.354 510.628 435.108 510.464 434.941C510.382 434.857 510.321 434.793 510.281 434.751C510.262 434.73 510.247 434.715 510.239 434.705C510.234 434.7 510.231 434.697 510.229 434.695C510.229 434.694 510.228 434.693 510.228 434.693C510.228 434.693 510.228 434.693 510.228 434.693C510.228 434.694 510.228 434.694 509.486 435.364ZM610.351 461.147C614.765 465.183 618.881 471.834 622.622 479.858C626.353 487.861 629.669 497.135 632.52 506.334C638.222 524.732 642.036 542.728 643.592 549.484L645.541 549.035C643.993 542.316 640.16 524.229 634.431 505.742C631.566 496.497 628.219 487.129 624.435 479.013C620.661 470.919 616.411 463.977 611.7 459.671L610.351 461.147ZM455.03 638.629C455.768 639.304 455.768 639.304 455.768 639.304C455.768 639.304 455.768 639.304 455.768 639.304C455.768 639.303 455.769 639.303 455.769 639.303C455.77 639.302 455.771 639.301 455.773 639.299C455.776 639.295 455.781 639.29 455.787 639.283C455.8 639.269 455.82 639.247 455.846 639.219C455.898 639.163 455.975 639.079 456.075 638.973C456.274 638.759 456.563 638.451 456.921 638.076C457.637 637.327 458.625 636.312 459.718 635.249C460.811 634.184 462.001 633.08 463.119 632.149C464.255 631.202 465.254 630.488 465.979 630.148L465.13 628.337C464.158 628.793 462.994 629.65 461.839 630.612C460.666 631.589 459.436 632.732 458.323 633.816C457.208 634.9 456.202 635.934 455.474 636.695C455.111 637.076 454.816 637.39 454.612 637.609C454.51 637.718 454.431 637.804 454.376 637.863C454.349 637.892 454.329 637.914 454.315 637.93C454.307 637.937 454.302 637.943 454.298 637.947C454.297 637.949 454.295 637.951 454.294 637.952C454.294 637.953 454.293 637.953 454.293 637.953C454.293 637.953 454.293 637.954 454.293 637.954C454.293 637.954 454.292 637.954 455.03 638.629ZM468.058 638.956C468.766 639.663 468.766 639.663 468.766 639.663C468.766 639.663 468.766 639.663 468.766 639.663C468.766 639.663 468.766 639.663 468.767 639.662C468.768 639.661 468.769 639.66 468.771 639.658C468.775 639.654 468.78 639.649 468.788 639.641C468.802 639.627 468.824 639.605 468.853 639.576C468.911 639.518 468.996 639.434 469.105 639.326C469.322 639.111 469.635 638.802 470.014 638.432C470.771 637.692 471.792 636.706 472.846 635.721C473.903 634.734 474.982 633.759 475.861 633.036C476.302 632.672 476.675 632.387 476.959 632.197C477.102 632.102 477.203 632.044 477.265 632.014C477.36 631.968 477.286 632.024 477.12 632.024V630.024C476.811 630.024 476.542 630.142 476.396 630.213C476.218 630.299 476.032 630.412 475.85 630.533C475.483 630.777 475.05 631.112 474.589 631.492C473.662 632.255 472.547 633.264 471.481 634.26C470.412 635.258 469.38 636.255 468.616 637.002C468.233 637.376 467.918 637.687 467.697 637.905C467.587 638.014 467.501 638.1 467.442 638.159C467.412 638.188 467.39 638.211 467.375 638.226C467.367 638.234 467.361 638.24 467.357 638.243C467.355 638.245 467.354 638.247 467.353 638.248C467.352 638.249 467.352 638.249 467.351 638.249C467.351 638.249 467.351 638.249 467.351 638.25C467.351 638.25 467.351 638.25 468.058 638.956ZM445.441 638.233C446.404 638.502 446.404 638.502 446.405 638.501C446.405 638.501 446.405 638.5 446.405 638.499C446.405 638.498 446.406 638.496 446.407 638.493C446.408 638.487 446.411 638.479 446.414 638.468C446.42 638.446 446.429 638.414 446.441 638.371C446.465 638.285 446.5 638.157 446.545 637.99C446.637 637.656 446.771 637.164 446.94 636.531C447.28 635.265 447.763 633.433 448.338 631.17C449.488 626.643 451.008 620.385 452.485 613.463C455.43 599.663 458.239 583.077 457.544 572.336L455.548 572.465C456.223 582.893 453.479 599.223 450.529 613.046C449.059 619.936 447.546 626.168 446.4 630.677C445.827 632.931 445.346 634.754 445.009 636.013C444.84 636.643 444.707 637.131 444.617 637.462C444.571 637.627 444.537 637.753 444.513 637.837C444.502 637.88 444.493 637.911 444.487 637.932C444.484 637.943 444.482 637.951 444.48 637.956C444.48 637.959 444.479 637.961 444.479 637.962C444.478 637.963 444.478 637.963 444.478 637.963C444.478 637.964 444.478 637.964 445.441 638.233ZM456.593 571.402C456.544 571.399 456.386 571.377 456.11 571.312L455.647 573.257C455.945 573.328 456.254 573.388 456.5 573.4L456.593 571.402ZM456.118 571.314C452.795 570.495 450.164 567.745 449.361 564.206L447.411 564.649C448.371 568.878 451.536 572.245 455.639 573.255L456.118 571.314ZM449.361 564.205C448.139 558.839 447.557 551.19 447.783 541.398L445.784 541.352C445.556 551.22 446.136 559.054 447.411 564.65L449.361 564.205ZM447.783 541.398C447.929 534.895 448.5 528.414 449.384 521.968L447.402 521.696C446.51 528.206 445.932 534.763 445.784 541.353L447.783 541.398ZM449.384 521.966C451.4 507.108 453.378 494.134 453.473 485.589L451.473 485.567C451.38 493.95 449.432 506.738 447.402 521.697L449.384 521.966ZM453.473 485.589C453.556 477.986 457.678 470.927 463.404 465.971L462.095 464.459C456.055 469.687 451.564 477.251 451.473 485.567L453.473 485.589ZM463.405 465.971C470.882 459.489 483.802 450.251 505.233 439.701L504.35 437.907C482.791 448.519 469.722 457.848 462.095 464.459L463.405 465.971ZM505.233 439.702C510.677 437.024 514.297 431.441 514.545 425.185L512.547 425.105C512.327 430.644 509.123 435.56 504.35 437.907L505.233 439.702ZM514.545 425.185C514.814 418.476 514.438 410.434 514.143 405.73L512.147 405.855C512.441 410.544 512.812 418.502 512.547 425.105L514.545 425.185ZM514.143 405.732C513.98 403.043 512.735 400.525 510.664 398.845L509.404 400.398C511.019 401.708 512.016 403.696 512.147 405.853L514.143 405.732ZM510.664 398.845C506.309 395.31 497.72 390.005 491.49 381.075C485.324 372.237 481.502 359.844 486.996 342.196L485.086 341.602C479.402 359.86 483.342 372.892 489.85 382.219C496.294 391.456 505.291 397.059 509.403 400.398L510.664 398.845ZM486.996 342.196C487.763 339.733 488.299 337.158 488.389 334.527L486.39 334.458C486.308 336.865 485.815 339.259 485.086 341.602L486.996 342.196ZM488.389 334.527C488.444 332.941 488.396 331.355 488.245 329.776L486.254 329.966C486.397 331.459 486.442 332.958 486.391 334.458L488.389 334.527ZM488.245 329.772C487.973 327.052 487.763 324.312 487.299 320.956L485.318 321.23C485.775 324.536 485.978 327.202 486.255 329.97L488.245 329.772ZM487.299 320.961C487.148 319.819 486.962 318.876 486.87 317.837L484.878 318.013C484.973 319.091 485.188 320.25 485.317 321.224L487.299 320.961ZM486.871 317.841C486.833 317.392 486.829 317.104 486.793 316.617C486.763 316.213 486.714 315.75 486.584 315.336C486.453 314.92 486.196 314.408 485.648 314.107C485.099 313.806 484.486 313.841 483.924 314.001L484.472 315.924C484.772 315.839 484.781 315.913 484.686 315.861C484.592 315.809 484.62 315.756 484.675 315.934C484.732 316.114 484.77 316.379 484.798 316.764C484.82 317.066 484.845 317.625 484.878 318.009L486.871 317.841ZM496.231 638.434H287.79V640.434H496.231V638.434ZM286.869 639.824L294.201 657.142L296.043 656.362L288.711 639.044L286.869 639.824ZM294.201 657.141C295.211 659.535 297.493 661.104 300.044 661.104V659.104C298.334 659.104 296.756 658.052 296.043 656.364L294.201 657.141ZM300.043 661.104L508.19 661.22L508.191 659.22L300.044 659.104L300.043 661.104ZM508.191 661.22C512.769 661.22 515.776 656.428 514.125 652.134L512.259 652.852C513.452 655.957 511.238 659.22 508.191 659.22V661.22ZM510.459 642.605C509.498 640.103 507.164 638.427 504.525 638.427V640.427C506.292 640.427 507.912 641.551 508.593 643.322L510.459 642.605ZM495.231 639.427V639.434H497.231V639.427H495.231ZM641.156 589.046C641.17 593.125 642.147 600.7 643.408 608.787C644.673 616.902 646.237 625.616 647.451 632.023L649.416 631.651C648.205 625.258 646.645 616.565 645.384 608.479C644.119 600.363 643.169 592.941 643.156 589.04L641.156 589.046ZM647.451 632.022C648.696 638.618 643.482 644.512 637.263 643.793L637.033 645.779C644.743 646.671 650.882 639.418 649.416 631.651L647.451 632.022ZM637.259 643.792C634.885 643.526 632.081 642.979 628.769 642.055L628.232 643.981C631.625 644.928 634.536 645.5 637.037 645.78L637.259 643.792ZM628.764 642.053C628.726 642.043 628.685 642.031 628.631 642.015C628.582 642 628.519 641.982 628.457 641.965L627.931 643.894C627.968 643.904 628.009 643.916 628.063 643.932C628.112 643.947 628.175 643.966 628.238 643.983L628.764 642.053ZM628.465 641.967C627.82 641.785 627.142 641.583 626.457 641.368L625.857 643.276C626.561 643.497 627.258 643.705 627.922 643.892L628.465 641.967ZM626.462 641.369C625.666 641.115 624.861 640.895 624.038 640.716L623.615 642.671C624.368 642.834 625.111 643.037 625.852 643.274L626.462 641.369ZM624.036 640.716C612.703 638.29 589.051 634.96 564.403 633.617C539.802 632.277 513.997 632.901 498.476 638.5L499.155 640.382C514.25 634.936 539.679 634.273 564.294 635.614C588.861 636.953 612.406 640.272 623.617 642.672L624.036 640.716ZM498.815 638.441C498.729 638.441 498.654 638.452 498.594 638.466C498.564 638.472 498.537 638.48 498.514 638.487C498.49 638.495 498.469 638.502 498.452 638.509C498.434 638.515 498.419 638.522 498.406 638.527C498.393 638.533 498.383 638.538 498.375 638.542C498.367 638.546 498.36 638.549 498.356 638.551C498.354 638.552 498.352 638.553 498.351 638.553C498.35 638.554 498.349 638.555 498.349 638.555C498.348 638.555 498.351 638.554 498.354 638.552C498.357 638.551 498.363 638.548 498.37 638.544C498.377 638.541 498.387 638.536 498.399 638.531C498.41 638.526 498.425 638.52 498.442 638.513C498.458 638.507 498.478 638.5 498.501 638.493C498.524 638.486 498.55 638.478 498.579 638.472C498.637 638.459 498.711 638.448 498.795 638.448V640.448C498.881 640.448 498.956 640.437 499.016 640.423C499.046 640.417 499.073 640.409 499.097 640.402C499.12 640.395 499.141 640.387 499.159 640.38C499.177 640.374 499.192 640.367 499.204 640.362C499.217 640.356 499.228 640.351 499.236 640.347C499.244 640.343 499.25 640.34 499.254 640.338C499.256 640.337 499.258 640.336 499.259 640.336C499.26 640.335 499.261 640.335 499.261 640.334C499.262 640.334 499.26 640.335 499.257 640.337C499.254 640.338 499.248 640.341 499.241 640.345C499.233 640.348 499.224 640.353 499.212 640.358C499.2 640.363 499.186 640.369 499.169 640.376C499.152 640.382 499.132 640.389 499.109 640.396C499.087 640.403 499.061 640.411 499.031 640.417C498.973 640.43 498.9 640.441 498.815 640.441V638.441ZM498.795 638.448C497.973 638.448 497.122 638.448 496.239 638.441L496.223 640.441C497.116 640.448 497.974 640.448 498.795 640.448V638.448ZM496.233 638.441C487.173 638.424 474.7 638.31 464.489 638.2C459.384 638.145 454.846 638.091 451.584 638.05C449.953 638.03 448.641 638.014 447.736 638.002C447.284 637.996 446.934 637.992 446.697 637.989C446.579 637.987 446.488 637.986 446.428 637.985C446.397 637.985 446.374 637.984 446.359 637.984C446.351 637.984 446.346 637.984 446.342 637.984C446.34 637.984 446.338 637.984 446.337 637.984C446.337 637.984 446.337 637.984 446.336 637.984C446.336 637.984 446.336 637.984 446.323 638.984C446.309 639.984 446.31 639.984 446.31 639.984C446.31 639.984 446.31 639.984 446.311 639.984C446.312 639.984 446.313 639.984 446.315 639.984C446.319 639.984 446.325 639.984 446.333 639.984C446.348 639.984 446.371 639.984 446.401 639.985C446.462 639.986 446.552 639.987 446.671 639.988C446.908 639.992 447.258 639.996 447.711 640.002C448.615 640.013 449.928 640.03 451.559 640.05C454.822 640.091 459.361 640.144 464.467 640.2C474.679 640.31 487.16 640.424 496.229 640.441L496.233 638.441ZM446.323 638.984C447.269 639.306 447.269 639.306 447.269 639.306C447.269 639.307 447.269 639.307 447.269 639.307C447.269 639.307 447.269 639.307 447.269 639.307C447.269 639.306 447.27 639.305 447.271 639.303C447.272 639.298 447.275 639.29 447.279 639.279C447.287 639.257 447.3 639.221 447.318 639.173C447.355 639.076 447.412 638.929 447.492 638.736C447.653 638.351 447.906 637.786 448.267 637.083C448.99 635.678 450.144 633.726 451.863 631.57C455.297 627.263 460.987 622.136 470.003 618.921L469.332 617.037C459.912 620.396 453.929 625.772 450.299 630.323C448.487 632.597 447.262 634.663 446.488 636.169C446.101 636.922 445.826 637.535 445.647 637.965C445.557 638.18 445.491 638.349 445.447 638.467C445.424 638.526 445.408 638.572 445.396 638.605C445.39 638.621 445.385 638.634 445.382 638.644C445.381 638.648 445.379 638.652 445.378 638.655C445.378 638.657 445.377 638.658 445.377 638.659C445.377 638.66 445.376 638.66 445.376 638.661C445.376 638.661 445.376 638.662 446.323 638.984ZM470.003 618.921C475.466 616.976 481.297 616.39 487.043 617.121L487.296 615.137C481.249 614.367 475.101 614.983 469.332 617.037L470.003 618.921ZM487.043 617.121C492.664 617.838 499.102 618.671 509.255 615.367L508.636 613.465C498.902 616.633 492.814 615.841 487.296 615.137L487.043 617.121ZM509.255 615.367C524.765 610.315 563.549 593.367 615.422 610.729L616.057 608.833C563.467 591.231 524.056 608.442 508.635 613.465L509.255 615.367ZM643.584 549.443C645.595 560.218 648.65 571.664 650.207 577.276L652.135 576.741C650.581 571.143 647.545 559.763 645.55 549.076L643.584 549.443ZM650.208 577.278C650.418 578.029 650.302 578.902 649.861 579.901C649.42 580.899 648.687 581.944 647.793 582.971C646.005 585.024 643.711 586.855 642.29 587.941L643.505 589.53C644.942 588.432 647.373 586.499 649.301 584.284C650.265 583.177 651.137 581.961 651.691 580.709C652.244 579.456 652.512 578.087 652.134 576.739L650.208 577.278ZM510.254 644.847C510.415 645.834 510.416 645.834 510.416 645.834C510.417 645.834 510.418 645.834 510.419 645.834C510.421 645.833 510.424 645.833 510.429 645.832C510.438 645.831 510.452 645.828 510.471 645.825C510.508 645.819 510.564 645.81 510.638 645.798C510.787 645.775 511.008 645.739 511.299 645.694C511.881 645.603 512.741 645.471 513.85 645.306C516.067 644.977 519.28 644.519 523.26 644.003C531.22 642.972 542.244 641.71 554.498 640.789C579.051 638.943 608.38 638.48 627.934 643.886L628.467 641.959C608.542 636.45 578.898 636.949 554.348 638.795C542.05 639.719 530.989 640.985 523.003 642.02C519.01 642.538 515.784 642.997 513.556 643.328C512.442 643.493 511.577 643.626 510.99 643.718C510.697 643.764 510.473 643.799 510.322 643.824C510.247 643.836 510.19 643.845 510.151 643.851C510.132 643.854 510.117 643.857 510.108 643.858C510.103 643.859 510.099 643.86 510.096 643.86C510.095 643.86 510.094 643.86 510.094 643.86C510.093 643.861 510.092 643.861 510.254 644.847ZM628 643.902C628.059 643.914 628.084 643.926 628.244 643.969L628.77 642.04C628.73 642.029 628.542 641.972 628.4 641.943L628 643.902ZM627.507 643.004V643.011H629.507V643.004H627.507ZM627.566 643.348L633.723 660.564L635.606 659.89L629.449 642.674L627.566 643.348ZM612.535 461.891C612.047 461.018 612.046 461.018 612.045 461.019C612.044 461.019 612.043 461.02 612.042 461.021C612.039 461.022 612.036 461.024 612.032 461.026C612.025 461.03 612.014 461.036 612.001 461.044C611.975 461.059 611.938 461.081 611.89 461.109C611.795 461.166 611.658 461.25 611.483 461.362C611.132 461.586 610.628 461.923 609.997 462.386C608.737 463.311 606.972 464.737 604.92 466.757C600.817 470.798 595.574 477.213 590.941 486.749C581.671 505.832 574.887 537.318 584.428 587.115L586.392 586.739C576.916 537.276 583.694 506.243 592.74 487.623C597.266 478.308 602.37 472.075 606.324 468.182C608.301 466.234 609.992 464.87 611.181 463.998C611.775 463.562 612.244 463.249 612.56 463.047C612.718 462.946 612.837 462.873 612.916 462.826C612.955 462.803 612.983 462.786 613.001 462.776C613.01 462.77 613.017 462.767 613.02 462.765C613.022 462.764 613.023 462.763 613.023 462.763C613.023 462.763 613.023 462.763 613.023 462.763C613.023 462.763 613.022 462.764 612.535 461.891ZM584.428 587.115C584.788 588.991 585.915 590.847 587.361 592.214C588.799 593.574 590.692 594.577 592.651 594.493L592.566 592.495C591.334 592.547 589.941 591.901 588.735 590.761C587.537 589.628 586.66 588.132 586.392 586.738L584.428 587.115ZM596.687 594.189L599.612 605.793L601.551 605.304L598.627 593.7L596.687 594.189ZM559.935 367.354C559.617 366.406 559.616 366.406 559.615 366.407C559.614 366.407 559.613 366.407 559.612 366.408C559.61 366.408 559.608 366.409 559.606 366.41C559.602 366.411 559.596 366.413 559.591 366.415C559.579 366.419 559.564 366.425 559.547 366.431C559.513 366.444 559.467 366.462 559.411 366.486C559.3 366.533 559.147 366.603 558.959 366.702C558.582 366.899 558.065 367.21 557.453 367.683C556.228 368.63 554.634 370.213 553.03 372.801C549.825 377.973 546.599 387.118 546.135 403.156L548.134 403.214C548.591 387.407 551.766 378.637 554.73 373.855C556.211 371.465 557.645 370.062 558.676 369.266C559.192 368.867 559.61 368.618 559.887 368.473C560.026 368.401 560.129 368.354 560.192 368.327C560.223 368.314 560.244 368.306 560.255 368.302C560.26 368.3 560.263 368.299 560.262 368.299C560.262 368.299 560.262 368.299 560.26 368.3C560.259 368.3 560.258 368.3 560.257 368.301C560.257 368.301 560.256 368.301 560.255 368.301C560.254 368.302 560.253 368.302 559.935 367.354ZM546.136 403.237C546.162 403.749 546.189 404.267 546.216 404.786L548.213 404.683C548.186 404.164 548.16 403.645 548.133 403.133L546.136 403.237ZM546.224 404.871C549.188 426.307 563.09 433.735 568.084 435.733L568.827 433.876C564.232 432.037 551.037 425.075 548.205 404.597L546.224 404.871ZM568.083 435.732C569.873 436.45 571.631 437.204 573.35 438.05L574.232 436.255C572.453 435.38 570.645 434.605 568.828 433.876L568.083 435.732ZM573.35 438.05C578.162 440.413 586.955 445.353 595.098 450.448C599.168 452.995 603.06 455.571 606.203 457.875C609.382 460.205 611.688 462.181 612.686 463.53L614.293 462.34C613.091 460.716 610.547 458.579 607.386 456.262C604.189 453.918 600.251 451.313 596.159 448.753C587.979 443.635 579.123 438.657 574.232 436.255L573.35 438.05ZM642.869 135.964C698.611 111.235 763.03 138.373 786.735 196.679L788.587 195.925C764.48 136.629 698.887 108.925 642.058 134.136L642.869 135.964ZM786.735 196.679C805.666 243.243 784.861 296.988 740.352 316.738L741.163 318.566C786.708 298.356 807.905 243.44 788.587 195.925L786.735 196.679ZM740.352 316.738C704.87 332.477 663.856 315.21 648.759 278.072L646.906 278.826C662.405 316.954 704.594 334.787 741.163 318.566L740.352 316.738ZM648.759 278.072C636.712 248.444 649.958 214.257 678.26 201.701L677.449 199.873C648.11 212.888 634.473 248.247 646.906 278.826L648.759 278.072ZM678.26 201.701C700.775 191.716 726.811 202.662 736.399 226.25L738.252 225.497C728.261 200.919 701.05 189.406 677.449 199.873L678.26 201.701ZM736.399 226.25C744.039 245.046 735.633 266.713 717.709 274.661L718.519 276.489C737.482 268.081 746.277 245.242 738.252 225.497L736.399 226.25ZM717.708 274.661C703.494 280.967 687.04 274.062 680.978 259.143L679.125 259.896C685.59 275.805 703.219 283.277 718.519 276.489L717.708 274.661ZM680.978 259.143C676.156 247.29 681.47 233.629 692.751 228.624L691.939 226.796C679.622 232.261 673.917 247.093 679.125 259.897L680.978 259.143ZM692.751 228.624C701.649 224.674 711.967 228.991 715.779 238.36L717.631 237.606C713.417 227.248 701.925 222.363 691.939 226.796L692.751 228.624ZM715.778 238.359C718.791 245.776 715.467 254.303 708.433 257.425L709.244 259.253C717.315 255.671 721.029 245.972 717.631 237.607L715.778 238.359ZM232.099 495.035H373.784V493.035H232.099V495.035ZM288.718 639.014L226.456 504.524L224.641 505.364L286.903 639.854L288.718 639.014ZM514.125 652.134L510.459 642.604L508.593 643.323L512.259 652.852L514.125 652.134ZM504.525 638.427H496.231V640.427H504.525V638.427ZM581.719 590.123C581.874 590.318 582.43 591.076 583.114 591.795C583.46 592.159 583.861 592.539 584.292 592.857C584.715 593.168 585.222 593.462 585.778 593.59L586.224 591.64C586.044 591.599 585.792 591.478 585.479 591.247C585.174 591.022 584.862 590.732 584.564 590.418C583.959 589.782 583.501 589.15 583.283 588.876L581.719 590.123ZM585.778 593.59C591.109 594.812 602.407 595.16 613.82 594.556C619.548 594.253 625.342 593.708 630.479 592.903C635.599 592.101 640.131 591.031 643.297 589.653L642.498 587.819C639.571 589.094 635.241 590.133 630.17 590.928C625.116 591.719 619.392 592.258 613.715 592.559C602.318 593.162 591.262 592.795 586.224 591.64L585.778 593.59Z" fill="black"/>
<path d="M694.988 157.795C708.025 157.795 718.593 146.756 718.593 133.139C718.593 119.521 708.025 108.482 694.988 108.482C681.951 108.482 671.383 119.521 671.383 133.139C671.383 146.756 681.951 157.795 694.988 157.795Z" fill="#BB2F84"/>
<path d="M97.8457 492.738C107.67 492.738 115.635 484.597 115.635 474.553C115.635 464.51 107.67 456.368 97.8457 456.368C88.0211 456.368 80.0566 464.51 80.0566 474.553C80.0566 484.597 88.0211 492.738 97.8457 492.738Z" fill="#FED958"/>
<path d="M456.553 572.401C456.553 572.401 467.384 572.879 471.778 572.319" stroke="black" stroke-width="0.75" stroke-miterlimit="10" stroke-linecap="round"/>
</svg>
