<svg width="25" height="24" viewBox="0 0 25 24" fill="none" xmlns="http://www.w3.org/2000/svg">
<g id="linkedin" clip-path="url(#clip0_734_1688)">
<g id="Vector">
<path d="M16.1 0H8.9C5.95972 0 4.48959 0 3.36655 0.572216C2.3787 1.07555 1.57555 1.8787 1.07222 2.86655C0.5 3.98959 0.5 5.45972 0.5 8.4V15.6C0.5 18.5403 0.5 20.0104 1.07222 21.1334C1.57555 22.1213 2.3787 22.9244 3.36655 23.4278C4.48959 24 5.95972 24 8.9 24H16.1C19.0403 24 20.5104 24 21.6334 23.4278C22.6213 22.9244 23.4244 22.1213 23.9278 21.1334C24.5 20.0104 24.5 18.5403 24.5 15.6V8.4C24.5 5.45972 24.5 3.98959 23.9278 2.86655C23.4244 1.8787 22.6213 1.07555 21.6334 0.572216C20.5104 0 19.0403 0 16.1 0Z" fill="white"/>
<path d="M5.93106 9.73137H8.51727V18.75H5.93106V9.73137ZM7.25002 5.25C7.54633 5.25001 7.83599 5.34485 8.08248 5.52257C8.32896 5.7003 8.52122 5.95293 8.635 6.24861C8.74878 6.54429 8.77898 6.86976 8.7218 7.18397C8.66462 7.49818 8.52261 7.78705 8.31369 8.01413C8.10478 8.24122 7.83831 8.39634 7.54791 8.45994C7.25751 8.52354 6.95618 8.49276 6.68195 8.37149C6.40771 8.25022 6.17285 8.04389 6.007 7.77853C5.84115 7.51316 5.75173 7.20066 5.75002 6.88043C5.74889 6.66676 5.78685 6.45496 5.86172 6.2572C5.93659 6.05944 6.0469 5.87963 6.18631 5.7281C6.32571 5.57658 6.49145 5.45634 6.674 5.37429C6.85655 5.29223 7.05231 5.25 7.25002 5.25Z" fill="black"/>
<path d="M10.2596 9.23773H13.0385V10.5322C13.3166 10.048 13.7185 9.65 14.2011 9.38057C14.6837 9.11114 15.2291 8.98043 15.7788 9.00237C18.6635 9.00237 19.25 10.9637 19.25 13.5232V18.7304H16.3654V14.141C16.3654 13.0426 16.3654 11.6207 14.8654 11.6207C13.3654 11.6207 13.1346 12.8171 13.1346 14.0527V18.75H10.25L10.2596 9.23773Z" fill="black"/>
</g>
</g>
<defs>
<clipPath id="clip0_734_1688">
<rect width="24" height="24" fill="white" transform="translate(0.5)"/>
</clipPath>
</defs>
</svg>
