<svg width="111" height="32" viewBox="0 0 111 32" fill="none" xmlns="http://www.w3.org/2000/svg">
<g id="logo">
<g id="logo_2">
<path d="M21.6546 0.990238L13.0694 0L14.1273 2.34905C12.6233 3.0186 11.1036 3.71816 9.61737 4.52614C7.75248 5.54002 5.94318 6.72464 4.37288 8.21656C2.8165 9.70585 1.51579 11.4657 0.737598 13.4619C0.348499 14.4574 0.0983648 15.5106 0.0233245 16.5771C-0.0544952 17.6435 0.0650136 18.7205 0.34294 19.7422C0.909912 21.7936 2.10778 23.598 3.59191 25.0637C5.08438 26.5293 6.87701 27.6877 8.79471 28.5151C10.7097 29.353 12.7274 29.8994 14.7563 30.3065C16.7879 30.7136 18.8362 30.9815 20.8817 31.2442C18.8585 30.8502 16.8351 30.4536 14.8563 29.923C12.8802 29.395 10.943 28.7278 9.16714 27.8085C7.3884 26.8997 5.79866 25.7072 4.52297 24.2731C3.25562 22.8416 2.32178 21.1553 1.9716 19.3929C1.61029 17.6304 1.89655 15.8259 2.67198 14.2C3.44183 12.5689 4.66471 11.1242 6.09326 9.93173C7.52737 8.74188 9.21438 7.77791 10.9903 6.96103C12.4061 6.30764 13.8869 5.73556 15.4006 5.1762L16.4574 7.52265L21.6546 0.990238Z" fill="#AF0000"/>
<path d="M20.4264 9.41396L13.82 8.37907L14.5752 10.1486C13.3967 10.5866 12.2035 11.0463 11.0349 11.586C9.5675 12.2635 8.13617 13.0699 6.88272 14.1102C5.64039 15.1476 4.58705 16.3953 3.93114 17.8347C3.60318 18.5518 3.38084 19.3161 3.29468 20.0988C3.20575 20.8815 3.2669 21.6774 3.45588 22.4392C3.83665 23.9679 4.71489 25.3363 5.82104 26.4684C6.93275 27.6005 8.28626 28.5146 9.74538 29.1921C11.1989 29.8751 12.7442 30.3531 14.3006 30.7235C15.857 31.0939 17.4329 31.3644 19.0059 31.6323C17.4523 31.2725 15.9015 30.9048 14.3868 30.4451C12.8748 29.9854 11.399 29.426 10.0511 28.6852C8.70315 27.9551 7.50806 27.02 6.56033 25.9195C5.62094 24.8214 4.94558 23.5475 4.72323 22.2395C4.48977 20.9315 4.75936 19.6128 5.40415 18.4467C6.04339 17.2752 7.02725 16.2587 8.16397 15.4312C9.30347 14.6066 10.632 13.9604 12.0272 13.4219C13.1378 12.9921 14.2957 12.6252 15.48 12.2687L16.2324 14.0316L20.4264 9.41396Z" fill="#BDD84C"/>
<path d="M16.7519 16.5244L12.4941 15.86L12.9689 17.0528C12.2065 17.3552 11.4344 17.6739 10.6765 18.0456C9.72314 18.5131 8.79486 19.07 7.97776 19.7818C7.16898 20.4936 6.4825 21.3446 6.04894 22.3243C5.83493 22.8129 5.68485 23.333 5.62371 23.8635C5.55979 24.3941 5.59592 24.9327 5.71265 25.4475C5.94888 26.4823 6.50474 27.4069 7.21345 28.166C7.92495 28.9277 8.79486 29.5423 9.73148 29.9915C10.6653 30.4459 11.6603 30.7611 12.6636 31.0028C13.6698 31.2444 14.6842 31.4203 15.6986 31.5911C14.6981 31.3574 13.6975 31.1183 12.722 30.8137C11.7465 30.5089 10.796 30.1386 9.93158 29.6447C9.06445 29.1588 8.29737 28.5311 7.69427 27.7904C7.09395 27.0497 6.66594 26.1908 6.52975 25.3056C6.38801 24.4205 6.57144 23.5273 6.99389 22.7315C7.41356 21.9357 8.05557 21.2396 8.79486 20.6722C9.53414 20.1076 10.3985 19.661 11.3017 19.288C12.0235 18.9917 12.7734 18.7369 13.5402 18.488L14.0143 19.679L16.7519 16.5244Z" fill="#44C2E0"/>
<path d="M99.1508 16.0671V19.114C101.566 19.114 103.889 19.1009 106.213 19.1167C108.82 19.1377 109.884 20.099 109.932 22.547C109.973 24.7508 109.937 26.9571 109.932 29.1635C109.929 30.7079 109.167 31.8374 107.5 31.8742C102.945 31.974 98.3865 31.9214 93.8313 31.8978C93.4644 31.8978 93.9425 31.8978 92.3722 31.932C92.8196 30.5372 93.3005 28.6749 93.7813 27.1725H102.831V24.0626C100.579 24.0626 98.3977 24.0862 96.2159 24.0573C93.1782 24.0153 92.2471 23.1669 92.186 20.3223C92.1387 18.1185 92.161 15.9122 92.1943 13.7058C92.2193 12.0721 93.1643 10.9741 94.8652 10.94C99.6733 10.8402 104.484 10.9058 109.926 10.9058C109.279 12.8994 108.798 14.3782 108.25 16.0645H99.1536L99.1508 16.0671Z" fill="white"/>
<path d="M66.5998 11.0031C65.8689 12.9468 65.3158 14.4151 64.6932 16.0751H55.5161V26.9073H66.4775C65.8883 28.7644 65.4353 30.1906 64.9211 31.8034C60.1102 31.8034 55.5105 31.9111 50.9247 31.693C50.1882 31.6589 48.9598 30.1775 48.9292 29.3317C48.7263 23.7974 48.7318 18.2526 48.8569 12.7157C48.8708 12.1326 50.0881 11.0977 50.7746 11.0793C55.7912 10.9375 60.8106 11.0031 66.5998 11.0031Z" fill="white"/>
<path d="M88.0645 11.1397C88.0645 17.0811 88.0645 10.8219 88.0645 16.0252C81.5638 16.0252 88.9678 16.0383 82.6589 16.0383V31.7718H76.0942V16.0804C74.1293 16.0804 76.8418 16.0567 70.6107 16.0567V11.1397H88.0645Z" fill="white"/>
<path d="M28.7963 32C26.6562 31.9081 24.6718 31.824 22.4456 31.7295C23.3155 29.0766 24.0243 26.9175 24.7413 24.7321C26.5312 20.2222 28.3571 15.6177 30.2054 10.9607H37.0841C39.4353 17.593 41.8839 24.4984 44.4575 31.7557H31.9702V27.1197C33.3737 27.0541 34.6856 26.9963 36.3503 26.9175C35.5638 24.5351 34.8356 22.3209 34.1047 20.1066C33.9018 20.1093 33.6989 20.1145 33.496 20.1171C31.9619 24.0019 30.4249 27.8893 28.8018 31.9974L28.7963 32Z" fill="white"/>
</g>
</g>
</svg>
