<svg width="32" height="32" viewBox="0 0 32 32" fill="none" xmlns="http://www.w3.org/2000/svg">
<g id="online">
<g id="Vector">
<path fill-rule="evenodd" clip-rule="evenodd" d="M8.49894 7.89883C7.93099 7.97404 7.68792 8.104 7.52754 8.26196C7.36715 8.41992 7.23517 8.65931 7.15881 9.21866C7.07888 9.80416 7.07692 10.5891 7.07692 11.7576V16.6061C7.07692 17.7746 7.07888 18.5595 7.15881 19.145C7.23517 19.7043 7.36714 19.9437 7.52754 20.1017C7.68792 20.2596 7.931 20.3896 8.49895 20.4648C9.09345 20.5435 9.89045 20.5455 11.0769 20.5455H20.9231C22.1095 20.5455 22.9065 20.5435 23.501 20.4648C24.069 20.3896 24.3121 20.2596 24.4725 20.1017C24.6329 19.9437 24.7648 19.7043 24.8412 19.145C24.9211 18.5595 24.9231 17.7746 24.9231 16.6061V11.7576C24.9231 10.5891 24.9211 9.80416 24.8412 9.21866C24.7648 8.65932 24.6329 8.41993 24.4725 8.26198C24.3121 8.10401 24.069 7.97404 23.501 7.89883C22.9065 7.82011 22.1095 7.81818 20.9231 7.81818H11.0769C9.89045 7.81818 9.09345 7.82012 8.49894 7.89883ZM11.0129 6H20.9871C22.0929 5.99997 23.015 5.99994 23.747 6.09687C24.5197 6.19918 25.2173 6.42423 25.7779 6.97631C26.3385 7.52839 26.567 8.21542 26.6709 8.97639C26.7693 9.69734 26.7693 10.6055 26.7692 11.6946V16.6691C26.7693 17.7581 26.7693 18.6663 26.6709 19.3872C26.567 20.1482 26.3385 20.8352 25.7779 21.3873C25.2173 21.9394 24.5197 22.1645 23.747 22.2668C23.015 22.3637 22.0929 22.3637 20.9871 22.3636H11.0129C9.90709 22.3637 8.98498 22.3637 8.25294 22.2668C7.48027 22.1645 6.78267 21.9394 6.2221 21.3873C5.66153 20.8352 5.43301 20.1482 5.32912 19.3872C5.2307 18.6663 5.23073 17.7581 5.23077 16.6691V11.6945C5.23073 10.6055 5.2307 9.69734 5.32912 8.97639C5.43301 8.21543 5.66153 7.52839 6.2221 6.97632C6.78267 6.42423 7.48028 6.19918 8.25295 6.09687C8.98498 5.99994 9.9071 5.99997 11.0129 6Z" fill="#9E9E9E"/>
<path fill-rule="evenodd" clip-rule="evenodd" d="M4 25.0909C4 24.5888 4.41328 24.1818 4.92308 24.1818H27.0769C27.5867 24.1818 28 24.5888 28 25.0909C28 25.593 27.5867 26 27.0769 26H4.92308C4.41328 26 4 25.593 4 25.0909Z" fill="#9E9E9E"/>
</g>
</g>
</svg>
