<svg width="32" height="32" viewBox="0 0 32 32" fill="none" xmlns="http://www.w3.org/2000/svg">
<g id="in-person">
<path id="Vector (Stroke)" fill-rule="evenodd" clip-rule="evenodd" d="M5.64929 7.73164C5.64929 5.67681 7.31608 4 9.38634 4C11.4544 4 13.1234 5.66351 13.1234 7.73164C13.1234 9.75465 11.5285 11.3904 9.52894 11.4627C9.48316 11.4644 9.43734 11.4624 9.39192 11.4567C9.3465 11.4624 9.30068 11.4644 9.2549 11.4627C7.25424 11.3904 5.66375 9.75494 5.64931 7.73777L5.64927 7.73164H5.64929ZM7.36358 7.72857C7.37287 8.80913 8.20584 9.67771 9.25691 9.74651C9.34622 9.73868 9.43762 9.73868 9.52693 9.74651C10.5799 9.67764 11.4091 8.80789 11.4091 7.73164C11.4091 6.61332 10.5107 5.71429 9.38634 5.71429C8.26518 5.71429 7.36524 6.62062 7.36358 7.72857ZM22.6138 5.71429C21.4895 5.71429 20.5911 6.61332 20.5911 7.73164C20.5911 8.80789 21.4203 9.67764 22.4732 9.74651C22.5625 9.73868 22.6539 9.73868 22.7432 9.74651C23.7943 9.67771 24.6273 8.8091 24.6366 7.72851C24.6349 6.62059 23.735 5.71429 22.6138 5.71429ZM18.8768 7.73164C18.8768 5.66351 20.5457 4 22.6138 4C24.6841 4 26.3509 5.67681 26.3509 7.73164V7.73777L26.3508 7.73777C26.3364 9.75494 24.7459 11.3904 22.7453 11.4627C22.6995 11.4644 22.6537 11.4624 22.6082 11.4567C22.5628 11.4624 22.517 11.4644 22.4712 11.4627C20.4716 11.3904 18.8768 9.75465 18.8768 7.73164ZM15.9164 14.0369C14.792 14.0369 13.8936 14.936 13.8936 16.0543C13.8936 17.1305 14.7228 18.0003 15.7758 18.0692C15.8664 18.0612 15.9591 18.0614 16.0496 18.0695C17.0919 18.0092 17.9298 17.1378 17.9391 16.0513C17.9375 14.9433 17.0375 14.0369 15.9164 14.0369ZM12.1793 16.0543C12.1793 13.9862 13.8483 12.3226 15.9164 12.3226C17.9866 12.3226 19.6534 13.9995 19.6534 16.0543V16.0604L19.6534 16.0604C19.639 18.0721 18.0526 19.7274 16.0416 19.7856C15.9979 19.7869 15.9542 19.7848 15.9108 19.7794C15.8654 19.785 15.8195 19.787 15.7738 19.7854C13.7742 19.7131 12.1793 18.0773 12.1793 16.0543ZM10.3214 14.1579C8.964 13.9205 7.48889 14.1719 6.51177 14.8186C5.90389 15.2233 5.71429 15.6715 5.71429 16.0097C5.71429 16.3481 5.90402 16.7965 6.51241 17.2013L6.51396 17.2024C7.479 17.8476 8.93231 18.0999 10.2939 17.8718C10.7608 17.7935 11.2027 18.1086 11.2809 18.5755C11.3591 19.0423 11.0441 19.4842 10.5772 19.5625C8.88062 19.8468 6.96328 19.5645 5.56196 18.628C4.5969 17.9856 4 17.0526 4 16.0097C4 14.9666 4.59721 14.0334 5.56273 13.391L5.56429 13.3899C6.97594 12.455 8.91602 12.1718 10.6167 12.4692C11.083 12.5508 11.3949 12.9949 11.3134 13.4612C11.2318 13.9275 10.7877 14.2394 10.3214 14.1579ZM21.3833 12.4692C23.084 12.1718 25.0241 12.455 26.4357 13.3899L26.4373 13.391C27.4028 14.0334 28 14.9666 28 16.0097C28 17.0526 27.4031 17.9856 26.438 18.628C25.0367 19.5645 23.1194 19.8468 21.4228 19.5625C20.9559 19.4842 20.6409 19.0423 20.7191 18.5755C20.7973 18.1086 21.2392 17.7935 21.7061 17.8718C23.0677 18.0999 24.521 17.8476 25.486 17.2024L25.4876 17.2013C26.096 16.7965 26.2857 16.3481 26.2857 16.0097C26.2857 15.6715 26.0961 15.2233 25.4882 14.8186C24.5111 14.1719 23.036 13.9205 21.6786 14.1579C21.2123 14.2394 20.7682 13.9275 20.6866 13.4612C20.6051 12.9949 20.917 12.5508 21.3833 12.4692ZM16.021 20.6955C17.328 20.6955 18.6812 21.0203 19.7399 21.7248C20.7054 22.3672 21.3027 23.3004 21.3027 24.3436C21.3027 25.3865 20.7057 26.3196 19.7404 26.962C18.6773 27.6715 17.3245 28 16.0168 28C14.7089 28 13.3559 27.6714 12.2927 26.9617C11.3278 26.3192 10.731 25.3863 10.731 24.3436C10.731 23.3004 11.3282 22.3672 12.2937 21.7248L12.2958 21.7234C13.3589 21.0204 14.7137 20.6955 16.021 20.6955ZM13.2422 23.1528C12.6347 23.5574 12.4453 24.0054 12.4453 24.3436C12.4453 24.682 12.635 25.1303 13.2434 25.5352L13.2444 25.5358C13.9672 26.0183 14.9694 26.2857 16.0168 26.2857C17.0642 26.2857 18.0665 26.0183 18.7892 25.5358L18.7903 25.5352C19.3986 25.1303 19.5884 24.682 19.5884 24.3436C19.5884 24.0052 19.3986 23.5568 18.7903 23.152C18.0741 22.6755 17.0721 22.4098 16.021 22.4098C14.9706 22.4098 13.965 22.6752 13.2422 23.1528Z" fill="#9E9E9E"/>
</g>
</svg>
