<svg width="25" height="24" viewBox="0 0 25 24" fill="none" xmlns="http://www.w3.org/2000/svg">
<g id="youtube">
<path id="Vector" d="M21.9938 6.51591C21.9096 6.20172 21.7484 5.91112 21.5235 5.6681C21.2985 5.42507 21.0163 5.23659 20.7 5.11818C17.6393 3.98978 12.7679 4 12.5 4C12.2321 4 7.36071 3.98978 4.3 5.11818C3.98372 5.23659 3.70146 5.42507 3.47651 5.6681C3.25157 5.91112 3.09038 6.20172 3.00625 6.51591C2.775 7.36648 2.5 8.92103 2.5 11.5C2.5 14.079 2.775 15.6335 3.00625 16.4841C3.09025 16.7984 3.25138 17.0892 3.47634 17.3324C3.70129 17.5756 3.98361 17.7642 4.3 17.8827C7.23214 18.9625 11.8214 19 12.4411 19H12.5589C13.1786 19 17.7705 18.9625 20.7 17.8827C21.0164 17.7642 21.2987 17.5756 21.5237 17.3324C21.7486 17.0892 21.9097 16.7984 21.9938 16.4841C22.225 15.6318 22.5 14.079 22.5 11.5C22.5 8.92103 22.225 7.36648 21.9938 6.51591ZM15.5554 11.7838L11.2696 14.5111C11.2158 14.5453 11.1533 14.565 11.0887 14.568C11.0241 14.571 10.9599 14.5572 10.9029 14.528C10.8458 14.4989 10.7982 14.4555 10.765 14.4026C10.7318 14.3496 10.7142 14.289 10.7143 14.2273V8.77273C10.7142 8.711 10.7318 8.65041 10.765 8.59744C10.7982 8.54447 10.8458 8.5011 10.9029 8.47196C10.9599 8.44282 11.0241 8.42901 11.0887 8.432C11.1533 8.43499 11.2158 8.45466 11.2696 8.48892L15.5554 11.2162C15.6043 11.2473 15.6445 11.2895 15.6723 11.339C15.7001 11.3885 15.7146 11.4438 15.7146 11.5C15.7146 11.5562 15.7001 11.6115 15.6723 11.661C15.6445 11.7105 15.6043 11.7527 15.5554 11.7838Z" fill="white"/>
</g>
</svg>
